<svg width="25" height="22" viewBox="0 0 25 22" fill="none" xmlns="http://www.w3.org/2000/svg">
<path d="M12.4421 4.16919C12.2124 4.16919 11.9878 4.2373 11.7969 4.3649C11.6059 4.49251 11.4571 4.67388 11.3692 4.88607C11.2813 5.09827 11.2583 5.33177 11.3031 5.55704C11.3479 5.7823 11.4585 5.98923 11.6209 6.15164C11.7833 6.31405 11.9902 6.42465 12.2155 6.46946C12.4408 6.51426 12.6743 6.49127 12.8865 6.40337C13.0987 6.31548 13.28 6.16663 13.4076 5.97566C13.5352 5.78468 13.6033 5.56016 13.6033 5.33048C13.603 5.02259 13.4805 4.72741 13.2628 4.50971C13.0451 4.292 12.7499 4.16954 12.4421 4.16919ZM12.4421 5.71758C12.3655 5.71758 12.2907 5.69487 12.227 5.65234C12.1633 5.6098 12.1137 5.54935 12.0844 5.47862C12.0551 5.40788 12.0475 5.33005 12.0624 5.25496C12.0773 5.17987 12.1142 5.1109 12.1683 5.05676C12.2225 5.00262 12.2914 4.96576 12.3665 4.95082C12.4416 4.93588 12.5195 4.94355 12.5902 4.97285C12.6609 5.00215 12.7214 5.05176 12.7639 5.11542C12.8064 5.17908 12.8291 5.25392 12.8291 5.33048C12.829 5.43311 12.7882 5.5315 12.7156 5.60407C12.6431 5.67664 12.5447 5.71746 12.4421 5.71758Z" fill="#FFC000"/>
<path d="M22.1193 0.29834H2.76448C2.14869 0.298993 1.55831 0.543903 1.12288 0.979329C0.687457 1.41476 0.442548 2.00513 0.441895 2.62092V15.7822C0.442548 16.398 0.687457 16.9884 1.12288 17.4238C1.55831 17.8592 2.14869 18.1041 2.76448 18.1048H4.31286V20.8145C4.3128 20.8911 4.33547 20.966 4.378 21.0297C4.42053 21.0934 4.48101 21.1431 4.55178 21.1724C4.62255 21.2017 4.70043 21.2094 4.77556 21.1944C4.85069 21.1795 4.91969 21.1425 4.97383 21.0883L7.95689 18.1048H22.1193C22.7351 18.1041 23.3255 17.8592 23.7609 17.4238C24.1963 16.9884 24.4412 16.398 24.4419 15.7822V2.62092C24.4412 2.00513 24.1963 1.41476 23.7609 0.979329C23.3255 0.543903 22.7351 0.298993 22.1193 0.29834ZM23.6677 15.7822C23.6673 16.1927 23.5041 16.5864 23.2138 16.8767C22.9235 17.167 22.5299 17.3302 22.1193 17.3306H7.79673C7.69405 17.3306 7.59554 17.3713 7.52286 17.4438L5.08706 19.8801V17.7177C5.08706 17.615 5.04627 17.5166 4.97368 17.444C4.90108 17.3714 4.80262 17.3306 4.69996 17.3306H2.76448C2.35394 17.3302 1.96032 17.167 1.67002 16.8767C1.37973 16.5864 1.21647 16.1927 1.21609 15.7822V2.62092C1.21647 2.21038 1.37973 1.81677 1.67002 1.52647C1.96032 1.23617 2.35394 1.07292 2.76448 1.07253H22.1193C22.5299 1.07292 22.9235 1.23617 23.2138 1.52647C23.5041 1.81677 23.6673 2.21038 23.6677 2.62092V15.7822Z" fill="#FFC000"/>
<path d="M12.4419 2.23389C8.59993 2.23389 5.47412 5.35969 5.47412 9.20163C5.47412 13.0436 8.59993 16.1694 12.4419 16.1694C16.2838 16.1694 19.4096 13.0436 19.4096 9.20163C19.4096 5.35969 16.2838 2.23389 12.4419 2.23389ZM12.4419 15.3952C11.2169 15.3952 10.0194 15.0319 9.00091 14.3514C7.98239 13.6708 7.18855 12.7035 6.71977 11.5718C6.251 10.4401 6.12834 9.19476 6.36732 7.99333C6.6063 6.7919 7.19618 5.68831 8.06236 4.82213C8.92855 3.95595 10.0321 3.36607 11.2336 3.12709C12.435 2.88811 13.6803 3.01076 14.812 3.47954C15.9438 3.94831 16.9111 4.74215 17.5916 5.76068C18.2722 6.7792 18.6354 7.97666 18.6354 9.20163C18.6336 10.8437 17.9804 12.418 16.8193 13.5791C15.6582 14.7402 14.0839 15.3933 12.4419 15.3952Z" fill="#FFC000"/>
<path d="M13.2162 6.87891H11.6679C11.5652 6.87891 11.4667 6.91969 11.3941 6.99228C11.3215 7.06488 11.2808 7.16334 11.2808 7.266V13.4596C11.2808 13.5622 11.3215 13.6607 11.3941 13.7333C11.4667 13.8059 11.5652 13.8466 11.6679 13.8466H13.2162C13.3189 13.8466 13.4174 13.8059 13.49 13.7333C13.5626 13.6607 13.6033 13.5622 13.6033 13.4596V7.266C13.6033 7.16334 13.5626 7.06488 13.49 6.99228C13.4174 6.91969 13.3189 6.87891 13.2162 6.87891ZM12.8291 13.0725H12.055V7.6531H12.8291V13.0725Z" fill="#FFC000"/>
</svg>
