<svg width="101" height="100" viewBox="0 0 101 100" fill="none" xmlns="http://www.w3.org/2000/svg">
<g clip-path="url(#clip0_133_7739)">
<path d="M92.7852 97.1814H85.9363C89.6147 92.0733 100.297 76.604 100.297 69.2267C100.297 60.5438 93.5 53.4257 84.9416 52.8767V34.0917H94.4117C95.4535 34.0917 95.8209 32.7712 94.992 32.1956L48.7188 0.925293C48.3664 0.687012 47.9106 0.687012 47.5582 0.925293L1.28497 32.1956C0.454699 32.7722 0.82384 34.0917 1.86525 34.0917H11.3354V97.1814H3.492C2.91173 97.1814 2.45587 97.6476 2.45587 98.2175C2.45587 98.7978 2.91173 99.2536 3.492 99.2536H92.7854C93.3553 99.2536 93.8215 98.7978 93.8215 98.2175C93.8213 97.6476 93.3551 97.1814 92.7852 97.1814ZM29.592 80.5411C29.592 81.111 29.1361 81.5772 28.5559 81.5772C27.9859 81.5772 27.5197 81.111 27.5197 80.5411V77.153C27.5197 76.5728 27.9859 76.1169 28.5559 76.1169C29.1361 76.1169 29.592 76.5728 29.592 77.153V80.5411ZM44.8022 97.1814V59.4663C44.8022 58.8964 44.3463 58.4302 43.766 58.4302H22.277C21.707 58.4302 21.2408 58.8964 21.2408 59.4663V97.1814H13.4076V34.0917H82.8695V52.8767C78.383 53.1563 74.394 55.2495 71.6068 58.4304H56.1168C53.3711 58.4304 51.133 60.6685 51.133 63.4142V74.8944C51.133 77.6401 53.3711 79.8782 56.1168 79.8782H71.0475C74.4875 86.6856 79.5436 93.9696 81.8543 97.1815H44.8022V97.1814ZM72.643 78.4794C72.6326 78.438 72.6119 78.4069 72.5912 78.3757C70.8297 74.8321 69.5969 71.5372 69.5969 69.2267C69.5969 61.3313 76.0106 54.897 83.8953 54.897C91.801 54.897 98.225 61.3313 98.225 69.2267C98.225 76.1583 87.0658 92.0835 83.8953 96.4663C81.792 93.555 76.176 85.5562 72.643 78.4794Z" fill="#FFC000"/>
<path d="M91.5521 69.2164C91.5521 73.4334 88.1226 76.8527 83.9054 76.8527C79.6987 76.8527 76.269 73.4336 76.269 69.2164C76.269 65.0098 79.6985 61.5801 83.9054 61.5801C88.1226 61.5803 91.5521 65.0098 91.5521 69.2164Z" fill="#FFC000"/>
</g>
<defs>
<clipPath id="clip0_133_7739">
<rect width="100" height="100" fill="white" transform="translate(0.562988)"/>
</clipPath>
</defs>
</svg>
