<svg width="25" height="24" viewBox="0 0 25 24" fill="none" xmlns="http://www.w3.org/2000/svg">
<path fill-rule="evenodd" clip-rule="evenodd" d="M12.4419 6.97222C10.1947 6.97222 8.47816 8.59893 8.47816 10.4824C8.47816 12.3659 10.1947 13.9926 12.4419 13.9926C14.6891 13.9926 16.4056 12.3659 16.4056 10.4824C16.4056 8.59893 14.6891 6.97222 12.4419 6.97222ZM15.0303 14.4929C16.5234 13.6929 17.5485 12.2181 17.5485 10.4824C17.5485 7.85745 15.2041 5.82935 12.4419 5.82935C9.67973 5.82935 7.33529 7.85745 7.33529 10.4824C7.33529 12.2181 8.36039 13.6929 9.85349 14.4929C7.3136 15.5178 5.52127 18.0061 5.52127 20.9131V23.2986H19.3625V20.9131C19.3625 18.0061 17.5702 15.5178 15.0303 14.4929ZM12.4419 15.1355C9.25089 15.1355 6.66411 17.7221 6.66411 20.9131V22.1557H18.2197V20.9131C18.2197 17.7222 15.6329 15.1355 12.4419 15.1355ZM18.1562 5.9197C20.6679 5.9197 22.8093 7.76507 22.8093 10.1646C22.8093 11.7102 21.9208 13.026 20.6171 13.7666C22.8656 14.7242 24.4419 16.9541 24.4419 19.5523V21.7564H20.6959V20.6135H23.2991V19.5523C23.2991 16.712 20.9965 14.4095 18.1562 14.4095V13.2667C20.153 13.2667 21.6664 11.8227 21.6664 10.1646C21.6664 8.50655 20.153 7.06257 18.1562 7.06257V5.9197ZM6.72758 7.06262C4.73083 7.06262 3.2174 8.5066 3.2174 10.1647C3.2174 11.8227 4.73083 13.2667 6.72758 13.2667V14.4096C3.88726 14.4096 1.58476 16.712 1.58476 19.5523V20.6136H4.18794V21.7564H0.441895V19.5523C0.441895 16.9542 2.01822 14.7242 4.26668 13.7667C2.96303 13.026 2.07453 11.7103 2.07453 10.1647C2.07453 7.76512 4.21591 5.91975 6.72758 5.91975V7.06262Z" fill="#FFC000"/>
<path d="M6.72754 0.359863L7.24073 1.93926H8.9014L7.55789 2.91536L8.07108 4.49476L6.72754 3.51866L5.38403 4.49476L5.89722 2.91536L4.55371 1.93926H6.21438L6.72754 0.359863Z" fill="#FFC000"/>
<path d="M12.4419 0.359863L12.9551 1.93926H14.6158L13.2722 2.91536L13.7854 4.49476L12.4419 3.51866L11.0984 4.49476L11.6116 2.91536L10.2681 1.93926H11.9287L12.4419 0.359863Z" fill="#FFC000"/>
<path d="M18.1563 0.359863L18.6695 1.93926H20.3301L18.9866 2.91536L19.4998 4.49476L18.1563 3.51866L16.8128 4.49476L17.3259 2.91536L15.9824 1.93926H17.6431L18.1563 0.359863Z" fill="#FFC000"/>
</svg>
