<svg width="25" height="24" viewBox="0 0 25 24" fill="none" xmlns="http://www.w3.org/2000/svg">
<g clip-path="url(#clip0_133_7867)">
<path d="M16.6606 14.9531C16.4018 14.9531 16.1919 15.163 16.1919 15.4219V18.6562C16.1919 19.9486 15.1405 21 13.8481 21H8.78714C8.52835 21 8.31858 21.2097 8.31839 21.4684L8.31774 22.4004L7.19893 21.2816C7.1265 21.1154 6.96075 21 6.76904 21H3.72314C2.4308 21 1.37939 19.9486 1.37939 18.6562V11.4375C1.37939 10.1452 2.4308 9.09375 3.72314 9.09375H8.45752C8.71636 9.09375 8.92627 8.88389 8.92627 8.625C8.92627 8.36611 8.71636 8.15625 8.45752 8.15625H3.72314C1.91386 8.15625 0.441895 9.62822 0.441895 11.4375V18.6562C0.441895 20.4655 1.91386 21.9375 3.72314 21.9375H6.52899L8.45419 23.8627C8.54386 23.9524 8.66372 24 8.78574 24C8.84607 24 8.90696 23.9883 8.96485 23.9644C9.14002 23.8919 9.25425 23.7211 9.25439 23.5316L9.25552 21.9375H13.8481C15.6574 21.9375 17.1294 20.4655 17.1294 18.6562V15.4219C17.1294 15.163 16.9195 14.9531 16.6606 14.9531Z" fill="#FFC000"/>
<path d="M17.6288 0H16.4425C12.6857 0 9.62939 3.05634 9.62939 6.81309C9.62939 10.5698 12.6857 13.6261 16.4424 13.6261H17.6288C18.2152 13.6261 18.7955 13.5517 19.358 13.4045L21.1105 15.156C21.2002 15.2456 21.32 15.2932 21.442 15.2932C21.5024 15.2932 21.5633 15.2815 21.6213 15.2575C21.7965 15.1849 21.9106 15.014 21.9106 14.8245V12.1125C22.6526 11.5116 23.269 10.7525 23.7016 9.90455C24.1928 8.94145 24.4419 7.90134 24.4419 6.81309C24.4419 3.05634 21.3856 0 17.6288 0ZM21.1598 11.5095C21.0423 11.598 20.9731 11.7367 20.9731 11.8839V13.6933L19.8261 12.5468C19.7368 12.4576 19.6171 12.4096 19.4947 12.4096C19.4487 12.4096 19.4023 12.4164 19.357 12.4303C18.7991 12.6018 18.2176 12.6887 17.6288 12.6887H16.4425C13.2026 12.6887 10.5669 10.0529 10.5669 6.81309C10.5669 3.57328 13.2027 0.9375 16.4425 0.9375H17.6288C20.8687 0.9375 23.5044 3.57328 23.5044 6.81309C23.5044 8.67548 22.6499 10.3873 21.1598 11.5095Z" fill="#FFC000"/>
<path d="M19.1464 5.12908C19.0788 4.14775 18.2877 3.35669 17.3063 3.28905C16.75 3.25084 16.2191 3.43848 15.8127 3.81784C15.412 4.19195 15.1821 4.7208 15.1821 5.26881C15.1821 5.5277 15.392 5.73756 15.6509 5.73756C15.9097 5.73756 16.1196 5.5277 16.1196 5.26881C16.1196 4.97542 16.2378 4.7035 16.4524 4.5032C16.6668 4.30309 16.9471 4.20405 17.2419 4.22439C17.7588 4.26002 18.1755 4.67669 18.2111 5.19358C18.2471 5.71563 17.9046 6.17697 17.3968 6.29059C16.9853 6.38266 16.698 6.74022 16.698 7.16008V8.28625C16.698 8.54514 16.9079 8.755 17.1667 8.755C17.4256 8.755 17.6355 8.54514 17.6354 8.28625V7.19753C18.58 6.96934 19.2137 6.10506 19.1464 5.12908Z" fill="#FFC000"/>
<path d="M17.4984 9.80897C17.4112 9.72179 17.2903 9.67163 17.167 9.67163C17.0437 9.67163 16.9228 9.72179 16.8356 9.80897C16.7484 9.89616 16.6982 10.0171 16.6982 10.1404C16.6982 10.2641 16.7484 10.3851 16.8356 10.4723C16.9228 10.5594 17.0437 10.6091 17.167 10.6091C17.2903 10.6091 17.4112 10.5594 17.4984 10.4723C17.5856 10.3846 17.6357 10.2641 17.6357 10.1404C17.6357 10.0171 17.5855 9.89616 17.4984 9.80897Z" fill="#FFC000"/>
<path d="M13.3325 14.5312H3.44189C3.18305 14.5312 2.97314 14.7411 2.97314 15C2.97314 15.2589 3.18305 15.4688 3.44189 15.4688H13.3325C13.5914 15.4688 13.8013 15.2589 13.8013 15C13.8013 14.7411 13.5914 14.5312 13.3325 14.5312Z" fill="#FFC000"/>
<path d="M13.6639 17.2936C13.5767 17.2064 13.4558 17.1562 13.3325 17.1562C13.2092 17.1562 13.0883 17.2064 13.0011 17.2936C12.9139 17.3808 12.8638 17.5017 12.8638 17.625C12.8638 17.7483 12.9139 17.8692 13.0011 17.9564C13.0883 18.0436 13.2092 18.0938 13.3325 18.0938C13.4558 18.0938 13.5767 18.0436 13.6639 17.9564C13.7511 17.8692 13.8013 17.7488 13.8013 17.625C13.8013 17.5017 13.7511 17.3808 13.6639 17.2936Z" fill="#FFC000"/>
<path d="M11.4888 17.1562H3.44189C3.18305 17.1562 2.97314 17.3661 2.97314 17.625C2.97314 17.8839 3.18305 18.0938 3.44189 18.0938H11.4888C11.7477 18.0938 11.9575 17.8839 11.9575 17.625C11.9575 17.3661 11.7476 17.1562 11.4888 17.1562Z" fill="#FFC000"/>
<path d="M10.2856 11.9062H3.44189C3.18305 11.9062 2.97314 12.1161 2.97314 12.375C2.97314 12.6339 3.18305 12.8438 3.44189 12.8438H10.2856C10.5445 12.8438 10.7544 12.6339 10.7544 12.375C10.7544 12.1161 10.5445 11.9062 10.2856 11.9062Z" fill="#FFC000"/>
</g>
<defs>
<clipPath id="clip0_133_7867">
<rect width="24" height="24" fill="white" transform="translate(0.441895)"/>
</clipPath>
</defs>
</svg>
