<svg width="100" height="101" viewBox="0 0 100 101" fill="none" xmlns="http://www.w3.org/2000/svg">
<path d="M46.2793 41.1988C47.4623 41.1988 48.4246 42.1637 48.4246 43.3498V66.6748C48.4246 67.8607 47.4621 68.8258 46.2793 68.8258H37.7367C36.5508 68.8258 35.5857 67.8609 35.5857 66.6748V43.3498C35.5857 42.1639 36.5506 41.1988 37.7367 41.1988H46.2793ZM36.4854 33.7629C35.9945 32.7934 35.7414 31.6877 35.8039 30.5266C35.8996 28.8105 36.6547 27.2371 37.9305 26.0932C39.2074 24.948 40.8533 24.3687 42.566 24.4648C46.0982 24.6549 48.8172 27.6877 48.6271 31.2262C48.6016 31.6836 48.5271 32.1268 48.4117 32.5521L52.4553 34.8478C52.5688 34.7297 52.6857 34.6139 52.809 34.5033C54.0873 33.3578 55.7353 32.7785 57.4486 32.8748C58.6264 32.9385 59.7383 33.3158 60.6904 33.9617L67.634 27.7389C67.0436 26.6871 66.7611 25.4889 66.8299 24.2563C66.9219 22.5453 67.6768 20.9703 68.9555 19.8244C70.2322 18.6803 71.8766 18.102 73.5863 18.1977C75.2996 18.2898 76.874 19.0443 78.0191 20.3223C79.1646 21.6006 79.743 23.2482 79.6475 24.9621C79.5555 26.6697 78.8012 28.2422 77.524 29.3867C76.3365 30.4508 74.8303 31.0254 73.2486 31.0256C73.127 31.0256 73.0053 31.0221 72.883 31.0154C71.7623 30.9551 70.701 30.608 69.7793 30.0166L62.7775 36.2914C63.3154 37.3088 63.5689 38.4559 63.5031 39.6338C63.4111 41.3447 62.6563 42.9199 61.3775 44.0656C60.1914 45.1285 58.6877 45.7025 57.1094 45.7025C56.9879 45.7025 56.8662 45.699 56.7441 45.6924C55.0338 45.6004 53.4592 44.8459 52.3139 43.5678C51.1684 42.2895 50.59 40.6418 50.6857 38.9279C50.7107 38.4619 50.7869 38.0064 50.9078 37.5664L46.8793 35.2793C45.7029 36.5227 44.0418 37.2924 42.2236 37.2926C42.1037 37.2926 41.9836 37.2893 41.8623 37.2826C40.6213 37.2158 39.4814 36.7969 38.532 36.1293L31.7754 42.1859C32.3135 43.2025 32.5682 44.349 32.5047 45.527C32.3141 48.9439 29.4715 51.598 26.0912 51.5982C25.9758 51.5982 25.86 51.5951 25.7434 51.5889C22.2107 51.399 19.4914 48.3658 19.6812 44.8273C19.8791 41.2902 22.909 38.5742 26.4436 38.7709C27.6221 38.8344 28.7346 39.2115 29.6871 39.8568L36.485 33.7631L36.4854 33.7629ZM28.5453 42.9824C27.9588 42.3277 27.1527 41.9414 26.2754 41.8943H26.2721C26.2102 41.8906 26.1482 41.8889 26.0871 41.8889C24.3568 41.8889 22.9031 43.2477 22.8053 44.9984C22.7078 46.8111 24.1014 48.3676 25.9117 48.465C27.723 48.56 29.2809 47.1674 29.3818 45.3555C29.4289 44.4809 29.1318 43.6371 28.5453 42.9826V42.9824ZM70.7869 26.8033C71.3734 27.458 72.1787 27.8445 73.0543 27.8916C73.9367 27.9404 74.7811 27.6443 75.4365 27.0568C76.0906 26.4707 76.477 25.6658 76.524 24.7906C76.573 23.9094 76.2768 23.0648 75.6897 22.4098C75.1027 21.7549 74.2959 21.3682 73.4178 21.3211H73.4143C73.352 21.3174 73.2895 21.3156 73.2275 21.3156C72.4199 21.3156 71.6504 21.6096 71.0428 22.1539C70.3873 22.7412 70.0004 23.5486 69.9531 24.4271C69.9041 25.3061 70.2 26.1486 70.7865 26.8035L70.7869 26.8033ZM54.6436 41.4799C55.2305 42.135 56.0375 42.5215 56.9156 42.5687C57.7928 42.6158 58.6363 42.3219 59.2904 41.7357C59.9459 41.1484 60.3328 40.3408 60.3803 39.4623C60.4293 38.5834 60.1332 37.7408 59.5467 37.0861C58.9602 36.4314 58.1549 36.0449 57.2793 35.9978H57.2762C57.2135 35.9941 57.151 35.9926 57.0887 35.9926C56.2779 35.9926 55.5059 36.2871 54.8969 36.8326C54.2428 37.4187 53.8564 38.2236 53.8094 39.0988C53.7603 39.9803 54.0566 40.8248 54.6436 41.4799ZM42.0338 34.159C43.8439 34.258 45.4025 32.8676 45.5039 31.0547C45.6014 29.242 44.2078 27.6855 42.3975 27.5883H42.3941C42.3316 27.5846 42.2691 27.5828 42.207 27.5828C41.3973 27.5828 40.6266 27.877 40.0189 28.4219C39.3641 29.0092 38.9764 29.8174 38.9273 30.6975C38.8299 32.5072 40.2234 34.0613 42.0338 34.1588V34.159ZM47.4664 88.2678C47.7879 88.8588 47.9705 89.5357 47.9705 90.2545C47.9705 91.6373 47.2916 92.8613 46.2523 93.6209C46.5309 94.1805 46.6916 94.8088 46.6916 95.4754C46.6916 97.7756 44.8201 99.6471 42.5199 99.6471H35.7986C35.7771 99.6471 35.7564 99.6441 35.7352 99.6439C35.7139 99.6447 35.693 99.6471 35.6713 99.6471H27.4607C23.2422 99.6471 21.334 97.9539 19.9408 96.7178C18.9215 95.8133 18.3846 95.3785 17.3291 95.3785H16.9676C16.8756 97.7477 14.9205 99.6471 12.5291 99.6471H7.91172C5.46191 99.6471 3.46875 97.6539 3.46875 95.2041V77.5428C3.46875 75.0961 5.46191 73.1053 7.91172 73.1053H12.5291C14.8857 73.1053 16.8186 74.9475 16.9625 77.2654C17.1074 77.0691 17.2809 76.8135 17.424 76.6016C18.7953 74.5709 21.3482 70.791 27.4607 70.791H32.8531C35.3396 70.791 37.3625 72.9084 37.3625 75.5109V75.6521H44.3467C46.5705 75.6521 48.3799 77.5234 48.3799 79.8236C48.3799 80.6475 48.1447 81.4141 47.7447 82.0615C48.5182 82.8191 49 83.8734 49 85.0391C49 86.3395 48.4016 87.502 47.466 88.2676L47.4664 88.2678ZM11.7846 89.5736C11.7846 88.7098 11.0844 88.0096 10.2205 88.0096C9.35664 88.0096 8.65645 88.7098 8.65645 89.5736V93.2607C8.65645 94.1246 9.35664 94.8248 10.2205 94.8248C11.0844 94.8248 11.7846 94.1246 11.7846 93.2607V89.5736ZM37.3627 80.8676H44.3469C44.8375 80.8676 45.252 80.3896 45.252 79.8238C45.252 79.258 44.8375 78.7803 44.3469 78.7803H37.3627V80.8676ZM34.2346 75.5111C34.2346 74.6482 33.602 73.9193 32.8531 73.9193H27.4607C23.0102 73.9193 21.2799 76.4816 20.0162 78.3525C19.2715 79.4553 18.568 80.4967 17.2959 80.4967H16.9721V92.2506H17.3291C19.6193 92.2506 20.8932 93.3809 22.017 94.3783C23.2578 95.4793 24.4299 96.5193 27.4607 96.5193H31.7645C31.6779 96.1852 31.627 95.8365 31.627 95.4756C31.627 94.4873 31.9732 93.5795 32.5482 92.8635C31.9732 92.1484 31.627 91.2418 31.627 90.2549C31.627 89.268 31.9729 88.3621 32.5475 87.6473C32.0262 86.9986 31.6975 86.1914 31.6406 85.3103C31.2066 85.1287 30.8354 84.9119 30.515 84.6756C29.5025 86.8773 27.8596 87.8992 26.3475 88.8385L26.1289 88.9742C25.8715 89.1348 25.5854 89.2113 25.3029 89.2113C24.7809 89.2113 24.2707 88.9502 23.9742 88.4746C23.5172 87.7416 23.741 86.7771 24.474 86.3201L24.6971 86.1812C26.8223 84.8613 28.2264 83.9891 28.3557 79.8586C28.3557 79.8551 28.3564 79.8516 28.3564 79.848C28.3496 79.61 28.3492 79.3906 28.3492 79.1986V78.2354C28.3492 77.3715 29.0494 76.6713 29.9133 76.6713C30.7771 76.6713 31.4773 77.3715 31.4773 78.2354V79.1986C31.4773 81.2094 31.6787 82.5687 34.2346 82.7244V82.5416C34.232 82.5053 34.2291 82.4689 34.2291 82.432C34.2291 82.3951 34.232 82.3588 34.2346 82.3225V77.3264C34.232 77.29 34.2291 77.2537 34.2291 77.2168C34.2291 77.1799 34.232 77.1436 34.2346 77.1072V75.5117V75.5111ZM43.5635 95.4754C43.5635 94.8969 43.0953 94.4262 42.5199 94.4262H35.7986C35.2232 94.4262 34.7551 94.8969 34.7551 95.4754C34.7551 96.041 35.233 96.5191 35.7986 96.5191H42.5199C43.0855 96.5191 43.5635 96.0412 43.5635 95.4754ZM44.8424 90.2547C44.8424 89.6891 44.3645 89.2109 43.7988 89.2109H35.7988C35.2332 89.2109 34.7553 89.6889 34.7553 90.2547C34.7553 90.8205 35.2332 91.2982 35.7988 91.2982H43.7988C44.3645 91.2982 44.8424 90.8205 44.8424 90.2547ZM45.8721 85.0395C45.8721 84.4738 45.3941 83.9957 44.8285 83.9957C44.7596 83.9957 44.6922 83.9896 44.6258 83.9811C44.5332 83.9877 44.441 83.9957 44.3469 83.9957H37.2387C36.9396 84.9588 36.1262 85.6848 35.1326 85.8352C35.3148 85.9889 35.548 86.083 35.7986 86.083H44.8285C45.3941 86.083 45.8721 85.6053 45.8721 85.0395ZM45.6941 13.8623L50.0662 17.027L48.3963 22.1422C48.0627 23.127 48.4035 24.2043 49.2598 24.8342C49.676 25.1324 50.1633 25.282 50.6523 25.282C51.1443 25.282 51.6375 25.1307 52.0613 24.8268L56.4217 21.6482L60.792 24.8342C61.6268 25.4324 62.7486 25.4326 63.5992 24.8229C64.44 24.2043 64.7807 23.127 64.4525 22.1586L62.7771 17.027L67.1434 13.8666C67.9875 13.2613 68.3396 12.1883 68.0195 11.1963C67.7016 10.2102 66.7896 9.54766 65.7475 9.54766L60.3514 9.55762L58.6904 4.41875C58.3711 3.42988 57.4594 2.76562 56.4215 2.76562C55.3836 2.76562 54.4715 3.43027 54.1527 4.41875L52.4918 9.55762L47.0928 9.54766C46.0535 9.54766 45.1416 10.2104 44.8238 11.1959C44.5035 12.1879 44.8555 13.2609 45.6941 13.8623ZM95.8607 77.5426V95.2039C95.8607 97.6537 93.8701 99.6469 91.4232 99.6469H86.8004C84.4119 99.6469 82.4592 97.7475 82.3674 95.3783H82.0004C80.9447 95.3783 80.4078 95.8133 79.3887 96.718C77.9963 97.9541 76.0893 99.6469 71.8742 99.6469H63.6582C63.6367 99.6469 63.6158 99.6445 63.5943 99.6437C63.573 99.6439 63.5522 99.6469 63.5309 99.6469H56.8152C54.515 99.6469 52.6436 97.7754 52.6436 95.4752C52.6436 94.8094 52.8039 94.1816 53.0818 93.6225C52.04 92.8631 51.359 91.6381 51.359 90.2543C51.359 89.5357 51.542 88.8588 51.8637 88.268C50.9279 87.5023 50.3293 86.3396 50.3293 85.0391C50.3293 83.8717 50.8127 82.8162 51.5881 82.0582C51.1893 81.4113 50.9549 80.6459 50.9549 79.8236C50.9549 77.5234 52.7643 75.6521 54.9881 75.6521H61.9668V75.5109C61.9668 72.9084 63.9896 70.791 66.4762 70.791H71.8742C77.9857 70.791 80.5385 74.5727 81.9102 76.6045C82.0535 76.817 82.2273 77.0732 82.3723 77.2695C82.5141 74.9496 84.4455 73.1053 86.8004 73.1053H91.4232C93.8701 73.1053 95.8607 75.0959 95.8607 77.5428V77.5426ZM54.083 79.8236C54.083 80.3893 54.4975 80.8674 54.9881 80.8674H61.9668V78.7801H54.9881C54.4975 78.7801 54.083 79.2578 54.083 79.8236ZM54.501 86.0826H63.5309C63.7818 86.0826 64.0152 85.9883 64.1977 85.8342C63.2039 85.6824 62.3904 84.9572 62.0912 83.9953H54.9883C54.8928 83.9953 54.7992 83.9873 54.7053 83.9805C54.6383 83.9893 54.5705 83.9953 54.5012 83.9953C53.9356 83.9953 53.4576 84.4732 53.4576 85.0391C53.4576 85.6049 53.9356 86.0826 54.5012 86.0826H54.501ZM64.5744 95.4752C64.5744 94.8967 64.1063 94.426 63.5309 94.426H56.8152C56.2398 94.426 55.7717 94.8967 55.7717 95.4752C55.7717 96.0408 56.2496 96.5189 56.8152 96.5189H63.5309C64.0965 96.5189 64.5744 96.041 64.5744 95.4752ZM64.5744 90.2545C64.5744 89.6889 64.0965 89.2107 63.5309 89.2107H55.5363C54.9578 89.2107 54.4871 89.6789 54.4871 90.2545C54.4871 90.8301 54.9578 91.298 55.5363 91.298H63.5309C64.0965 91.298 64.5744 90.8203 64.5744 90.2545ZM82.3629 80.4965H82.0334C80.7631 80.4965 80.0607 79.4562 79.3174 78.3547C78.0537 76.4828 76.323 73.9191 71.8742 73.9191H66.4762C65.7273 73.9191 65.0947 74.648 65.0947 75.5109V77.1064C65.0973 77.1428 65.1002 77.1791 65.1002 77.216C65.1002 77.2529 65.0973 77.2893 65.0947 77.3256V82.3217C65.0973 82.358 65.1002 82.3943 65.1002 82.4313C65.1002 82.4682 65.0973 82.5045 65.0947 82.5408V82.7238C67.6557 82.5699 67.8574 81.21 67.8574 79.1979V78.2346C67.8574 77.3707 68.5576 76.6705 69.4215 76.6705C70.2854 76.6705 70.9855 77.3707 70.9855 78.2346V79.1979C70.9855 79.4076 70.985 79.65 70.9762 79.9139C71.1213 83.998 72.5215 84.8695 74.6363 86.1832L74.8553 86.3193C75.5883 86.7764 75.8119 87.7408 75.3551 88.4738C75.0586 88.9496 74.5482 89.2105 74.0264 89.2105C73.7438 89.2105 73.4578 89.134 73.2004 88.9734L72.9857 88.84C71.474 87.901 69.8316 86.8791 68.8178 84.6762C68.4965 84.9129 68.124 85.1301 67.6885 85.3119C67.6311 86.192 67.3025 86.9982 66.7818 87.6463C67.3564 88.3613 67.7023 89.2676 67.7023 90.2539C67.7023 91.2402 67.3561 92.1475 66.7811 92.8625C67.3561 93.5785 67.7023 94.4863 67.7023 95.4746C67.7023 95.8355 67.6514 96.184 67.5648 96.5184H71.874C74.901 96.5184 76.0719 95.4789 77.3117 94.3781C78.4355 93.3807 79.7094 92.2498 82.0002 92.2498H82.3627V80.4959L82.3629 80.4965ZM90.673 89.5736C90.673 88.7098 89.9729 88.0096 89.109 88.0096C88.2451 88.0096 87.5449 88.7098 87.5449 89.5736V93.2607C87.5449 94.1246 88.2451 94.8248 89.109 94.8248C89.9729 94.8248 90.673 94.1246 90.673 93.2607V89.5736ZM30.9602 54.2814H22.423C21.2371 54.2814 20.2721 55.2463 20.2721 56.4324V66.6748C20.2721 67.8607 21.2369 68.8258 22.423 68.8258H30.9602C32.1461 68.8258 33.1111 67.8609 33.1111 66.6748V56.4324C33.1111 55.2465 32.1463 54.2814 30.9602 54.2814ZM61.5932 47.743H53.0561C51.8701 47.743 50.9051 48.7078 50.9051 49.8937V66.6746C50.9051 67.8605 51.8699 68.8256 53.0561 68.8256H61.5932C62.7791 68.8256 63.7441 67.8607 63.7441 66.6746V49.8937C63.7441 48.7078 62.7793 47.743 61.5932 47.743ZM68.3697 34.6549C67.1838 34.6549 66.2188 35.6197 66.2188 36.8059V66.6748C66.2188 67.8607 67.1836 68.8258 68.3697 68.8258H76.9125C78.0955 68.8258 79.0578 67.8609 79.0578 66.6748V36.8057C79.0578 35.6197 78.0955 34.6547 76.9125 34.6547H68.3697V34.6549ZM6.15977 20.0027C6.15977 12.0305 12.6457 5.54453 20.6182 5.54453C28.5906 5.54453 35.0766 12.0305 35.0766 20.0027C35.0766 27.975 28.5906 34.4611 20.6182 34.4611C12.6457 34.4611 6.15977 27.975 6.15977 20.0027ZM22.8963 22.782C22.8963 23.2775 22.0088 23.9973 20.618 23.9973C19.2271 23.9973 18.3342 23.2775 18.3342 22.782C18.3342 21.9182 17.634 21.218 16.7701 21.218C15.9062 21.218 15.2061 21.9182 15.2061 22.782C15.2061 24.7793 16.8051 26.4207 19.0539 26.9471V27.5488C19.0539 28.4127 19.7541 29.1129 20.618 29.1129C21.4818 29.1129 22.182 28.4127 22.182 27.5488V26.9467C24.4277 26.4197 26.0242 24.7787 26.0242 22.782C26.0242 19.3465 22.8043 18.7924 20.8805 18.4613C18.5428 18.0592 18.3342 17.8158 18.3342 17.2234C18.3342 16.7303 19.2238 16.0139 20.618 16.0139C22.0121 16.0139 22.8963 16.7303 22.8963 17.2234C22.8963 18.0873 23.5965 18.7875 24.4604 18.7875C25.3242 18.7875 26.0244 18.0873 26.0244 17.2234C26.0244 15.2293 24.4277 13.5902 22.1822 13.0641V12.4566C22.1822 11.5928 21.482 10.8926 20.6182 10.8926C19.7543 10.8926 19.0541 11.5928 19.0541 12.4566V13.0639C16.8053 13.5896 15.2063 15.2289 15.2063 17.2236C15.2063 20.6592 18.4262 21.2133 20.35 21.5443C22.6877 21.9465 22.8963 22.1896 22.8963 22.782Z" fill="#FFC000"/>
</svg>
