<svg width="20" height="21" viewBox="0 0 20 21" fill="none" xmlns="http://www.w3.org/2000/svg">
<path d="M19.2864 11.5529C19.3319 11.5525 19.3772 11.548 19.4219 11.5393L13.7181 6.33105L13.0881 6.90717C12.8314 7.13942 12.4976 7.26803 12.1515 7.26803C11.8054 7.26803 11.4716 7.13942 11.2149 6.90717L10.5853 6.33141L5.34448 11.1151C5.41868 11.255 5.50382 11.4009 5.5999 11.5529H19.2864Z" fill="#334451"/>
<path d="M13.9549 19.7416C14.1692 19.6428 14.3645 19.5071 14.5318 19.3406L15.5185 18.3503C15.6467 18.222 15.7187 18.048 15.7187 17.8666C15.7187 17.6852 15.6467 17.5112 15.5185 17.3829L13.0642 14.9282C12.9347 14.8026 12.7614 14.7323 12.581 14.7323C12.4005 14.7323 12.2272 14.8026 12.0978 14.9282L11.496 15.5297C11.32 15.7088 11.1026 15.8416 10.8629 15.9163C10.6232 15.991 10.3687 16.0053 10.1222 15.9577C9.30489 15.7922 8.00246 15.2661 6.43675 13.7011C4.87105 12.1361 4.34558 10.833 4.18005 10.0164C4.13236 9.76974 4.1465 9.51508 4.2212 9.27518C4.29589 9.03528 4.42883 8.81761 4.60813 8.6416L5.20852 8.04122C5.27264 7.97815 5.32357 7.90294 5.35833 7.81998C5.39309 7.73703 5.41099 7.64798 5.41099 7.55803C5.41099 7.46809 5.39309 7.37904 5.35833 7.29609C5.32357 7.21313 5.27264 7.13792 5.20852 7.07485L2.75383 4.6177C2.62534 4.48978 2.45141 4.41797 2.2701 4.41797C2.08879 4.41797 1.91486 4.48978 1.78637 4.6177L0.793222 5.60726C0.627662 5.77414 0.492672 5.96877 0.394394 6.18231C-1.29545 9.93617 2.91222 14.5658 4.2407 15.8957C5.56918 17.2256 10.1985 21.4335 13.9549 19.7416Z" fill="#334451"/>
<path d="M14.2465 5.848L19.9599 11.0637C19.9854 10.9914 19.9989 10.9153 19.9999 10.8386V0.850227C19.9989 0.773636 19.9854 0.69772 19.9599 0.625488L14.2465 5.848Z" fill="#334451"/>
<path d="M4.88159 0.150274L11.697 6.37947C11.8216 6.49218 11.9836 6.55458 12.1517 6.55458C12.3197 6.55458 12.4817 6.49218 12.6063 6.37947L19.4221 0.150274C19.3774 0.14158 19.332 0.137042 19.2865 0.136719H5.01715C4.97164 0.137042 4.92626 0.14158 4.88159 0.150274Z" fill="#334451"/>
<path d="M5.11242 9.14453C5.01725 9.23805 4.94633 9.35337 4.9058 9.48049C4.86527 9.60761 4.85636 9.7427 4.87983 9.87404C4.91921 10.0624 4.97202 10.2476 5.03786 10.4284L10.0564 5.848L4.3433 0.625488C4.31781 0.69772 4.30431 0.773636 4.30334 0.850228V5.15809L5.7128 6.56752C5.84347 6.69689 5.9472 6.85087 6.01799 7.02057C6.08878 7.19027 6.12523 7.37232 6.12523 7.5562C6.12523 7.74007 6.08878 7.92212 6.01799 8.09182C5.9472 8.26152 5.84347 8.4155 5.7128 8.54487L5.11242 9.14453Z" fill="#334451"/>
</svg>
