<svg width="21" height="21" viewBox="0 0 21 21" fill="none" xmlns="http://www.w3.org/2000/svg">
<path d="M19.4121 11.8331C19.4576 11.8328 19.503 11.8283 19.5476 11.8196L13.8438 6.61133L13.2138 7.18745C12.9572 7.41969 12.6234 7.5483 12.2772 7.5483C11.9311 7.5483 11.5973 7.41969 11.3406 7.18745L10.711 6.61169L5.47021 11.3954C5.54442 11.5353 5.62956 11.6812 5.72564 11.8331H19.4121Z" fill="#FFC000"/>
<path d="M14.0808 20.0218C14.2951 19.9231 14.4903 19.7873 14.6576 19.6209L15.6443 18.6306C15.7725 18.5023 15.8445 18.3283 15.8445 18.1469C15.8445 17.9655 15.7725 17.7915 15.6443 17.6632L13.19 15.2085C13.0605 15.0829 12.8872 15.0126 12.7068 15.0126C12.5264 15.0126 12.3531 15.0829 12.2236 15.2085L11.6218 15.8099C11.4459 15.9891 11.2284 16.1219 10.9887 16.1966C10.749 16.2713 10.4946 16.2855 10.248 16.238C9.43075 16.0725 8.12831 15.5463 6.56261 13.9814C4.9969 12.4164 4.47143 11.1133 4.30591 10.2967C4.25822 10.05 4.27235 9.79535 4.34705 9.55546C4.42175 9.31556 4.55468 9.09789 4.73399 8.92187L5.33437 8.3215C5.3985 8.25842 5.44942 8.18321 5.48418 8.10026C5.51895 8.0173 5.53685 7.92825 5.53685 7.83831C5.53685 7.74836 5.51895 7.65932 5.48418 7.57636C5.44942 7.4934 5.3985 7.41819 5.33437 7.35512L2.87969 4.89797C2.75119 4.77006 2.57726 4.69824 2.39596 4.69824C2.21465 4.69824 2.04072 4.77006 1.91222 4.89797L0.919077 5.88754C0.753516 6.05441 0.618526 6.24905 0.520248 6.46258C-1.1696 10.2164 3.03808 14.8461 4.36655 16.176C5.69503 17.5058 10.3244 21.7138 14.0808 20.0218Z" fill="#FFC000"/>
<path d="M14.3721 6.12827L20.0855 11.344C20.111 11.2717 20.1245 11.1956 20.1255 11.1189V1.1305C20.1245 1.05391 20.111 0.977994 20.0855 0.905762L14.3721 6.12827Z" fill="#FFC000"/>
<path d="M5.00732 0.430548L11.8227 6.65975C11.9473 6.77245 12.1094 6.83485 12.2774 6.83485C12.4454 6.83485 12.6074 6.77245 12.732 6.65975L19.5478 0.430548C19.5031 0.421854 19.4577 0.417316 19.4122 0.416992H5.14288C5.09738 0.417316 5.052 0.421854 5.00732 0.430548Z" fill="#FFC000"/>
<path d="M5.23827 9.4248C5.14311 9.51832 5.07219 9.63364 5.03166 9.76076C4.99113 9.88788 4.98221 10.023 5.00568 10.1543C5.04506 10.3426 5.09787 10.5279 5.16371 10.7087L10.1822 6.12827L4.46915 0.905762C4.44366 0.977994 4.43017 1.05391 4.4292 1.1305V5.43836L5.83865 6.84779C5.96933 6.97716 6.07305 7.13114 6.14385 7.30084C6.21464 7.47054 6.25109 7.6526 6.25109 7.83647C6.25109 8.02034 6.21464 8.20239 6.14385 8.37209C6.07305 8.54179 5.96933 8.69578 5.83865 8.82514L5.23827 9.4248Z" fill="#FFC000"/>
</svg>
