<svg width="20" height="21" viewBox="0 0 20 21" fill="none" xmlns="http://www.w3.org/2000/svg">
<g clip-path="url(#clip0_39_3033)">
<path d="M4.72933 12.6219C4.74332 12.2986 4.49265 12.0251 4.16929 12.0111C3.84769 11.997 3.57258 12.2477 3.55855 12.5711C3.52086 13.4412 2.58594 13.9844 1.81 13.5759C0.879725 13.0861 1.00316 11.7198 1.98394 11.3897C2.22238 11.3095 2.38304 11.086 2.38304 10.8344V6.68262L1.21121 5.51074V10.4553C-0.394572 11.3491 -0.419416 13.7265 1.26414 14.6129C2.79972 15.4212 4.65453 14.3471 4.72933 12.6219Z" fill="#334451"/>
<path d="M19.414 14.2583C19.7376 14.2583 19.9999 13.996 19.9999 13.6724V9.76611C19.9999 9.01225 19.3866 8.39893 18.6328 8.39893H16.4453V11.3286C16.4453 11.6522 16.183 11.9146 15.8594 11.9146H7.65642V13.6724C7.65642 13.996 7.91876 14.2583 8.24235 14.2583H9.82435V15.4302H5.89864C4.60634 15.4302 3.55493 16.4816 3.55493 17.7739C3.55493 19.0663 4.6063 20.1177 5.89864 20.1177H17.6562C18.9485 20.1177 19.9999 19.0663 19.9999 17.7739C19.9999 16.4816 18.9486 15.4302 17.6562 15.4302H13.7305V14.2583H19.414ZM5.89864 18.9458C5.25247 18.9458 4.72681 18.4201 4.72681 17.7739C4.72681 17.1278 5.25251 16.6021 5.89864 16.6021C6.54478 16.6021 7.07048 17.1278 7.07048 17.7739C7.07048 18.4201 6.54481 18.9458 5.89864 18.9458ZM17.6562 16.6021C18.3024 16.6021 18.8281 17.1278 18.8281 17.7739C18.8281 18.4201 18.3024 18.9458 17.6562 18.9458C17.0101 18.9458 16.4844 18.4201 16.4844 17.7739C16.4844 17.1278 17.0101 16.6021 17.6562 16.6021ZM15.6278 18.9458H7.92704C8.33821 18.2369 8.35661 17.3427 7.92704 16.6021H15.6278C15.2167 17.311 15.1983 18.2052 15.6278 18.9458Z" fill="#334451"/>
<path d="M6.48463 9.1269V6.641C6.48463 5.92463 6.66944 5.25069 6.99358 4.66401L3.00112 0.671509C2.31424 -0.0154443 1.20225 -0.0155615 0.515259 0.671509C-0.171694 1.35842 -0.171812 2.47034 0.515259 3.15741L6.48463 9.1269Z" fill="#334451"/>
<path d="M15.2735 3.71143H10.5861C8.97071 3.71143 7.65649 5.02568 7.65649 6.64111V10.7427H15.2735V3.71143Z" fill="#334451"/>
</g>
<defs>
<clipPath id="clip0_39_3033">
<rect width="20" height="20" fill="white" transform="translate(0 0.136719)"/>
</clipPath>
</defs>
</svg>
