<svg width="20" height="21" viewBox="0 0 20 21" fill="none" xmlns="http://www.w3.org/2000/svg">
<path d="M4.72933 13.1521C4.74332 12.8289 4.49265 12.5554 4.16929 12.5414C3.84769 12.5272 3.57258 12.778 3.55855 13.1014C3.52086 13.9714 2.58594 14.5146 1.81 14.1061C0.879725 13.6164 1.00316 12.25 1.98394 11.92C2.22238 11.8398 2.38304 11.6162 2.38304 11.3646V7.21289L1.21121 6.04102V10.9856C-0.394572 11.8794 -0.419416 14.2568 1.26414 15.1431C2.79972 15.9515 4.65453 14.8773 4.72933 13.1521Z" fill="#FFC000"/>
<path d="M19.414 14.7886C19.7376 14.7886 19.9999 14.5262 19.9999 14.2026V10.2964C19.9999 9.54252 19.3866 8.9292 18.6328 8.9292H16.4453V11.8589C16.4453 12.1825 16.183 12.4448 15.8594 12.4448H7.65642V14.2026C7.65642 14.5262 7.91876 14.7886 8.24235 14.7886H9.82435V15.9604H5.89864C4.60634 15.9604 3.55493 17.0119 3.55493 18.3042C3.55493 19.5965 4.6063 20.6479 5.89864 20.6479H17.6562C18.9485 20.6479 19.9999 19.5965 19.9999 18.3042C19.9999 17.0119 18.9486 15.9604 17.6562 15.9604H13.7305V14.7886H19.414ZM5.89864 19.4761C5.25247 19.4761 4.72681 18.9504 4.72681 18.3042C4.72681 17.658 5.25251 17.1323 5.89864 17.1323C6.54478 17.1323 7.07048 17.658 7.07048 18.3042C7.07048 18.9504 6.54481 19.4761 5.89864 19.4761ZM17.6562 17.1323C18.3024 17.1323 18.8281 17.658 18.8281 18.3042C18.8281 18.9504 18.3024 19.4761 17.6562 19.4761C17.0101 19.4761 16.4844 18.9504 16.4844 18.3042C16.4844 17.658 17.0101 17.1323 17.6562 17.1323ZM15.6278 19.4761H7.92704C8.33821 18.7671 8.35661 17.8729 7.92704 17.1323H15.6278C15.2167 17.8413 15.1983 18.7354 15.6278 19.4761Z" fill="#FFC000"/>
<path d="M6.48463 9.65717V7.17127C6.48463 6.45491 6.66944 5.78096 6.99358 5.19428L3.00112 1.20178C2.31424 0.514829 1.20225 0.514712 0.515259 1.20178C-0.171694 1.8887 -0.171812 3.00061 0.515259 3.68768L6.48463 9.65717Z" fill="#FFC000"/>
<path d="M15.2735 4.2417H10.5861C8.97071 4.2417 7.65649 5.55596 7.65649 7.17139V11.2729H15.2735V4.2417Z" fill="#FFC000"/>
</svg>
