<svg width="101" height="100" viewBox="0 0 101 100" fill="none" xmlns="http://www.w3.org/2000/svg">
<g clip-path="url(#clip0_133_7725)">
<path d="M34.938 88.2791C33.86 88.2791 32.9849 89.1541 32.9849 90.2322C32.9849 91.311 33.86 92.1853 34.938 92.1853C36.016 92.1853 36.8911 91.311 36.8911 90.2322C36.8911 89.1541 36.016 88.2791 34.938 88.2791Z" fill="#FFC000"/>
<path d="M98.0941 30.442C98.085 30.4351 98.075 30.429 98.0659 30.4221L81.813 19.2817V13.6695C81.813 12.5915 80.9387 11.7164 79.8599 11.7164H70.4749L56.2072 1.7951C52.8312 -0.596712 48.2948 -0.596712 44.9325 1.78518L30.6487 11.7164H21.2661C20.1873 11.7164 19.313 12.5915 19.313 13.6695V19.2817L3.06009 30.4221C3.05093 30.4282 3.04102 30.4351 3.03186 30.442C1.46021 31.5604 0.562988 33.3732 0.562988 35.2202V94.1382C0.562988 97.3083 3.12646 99.9976 6.42236 99.9976H94.7036C98.0018 99.9976 100.563 97.306 100.563 94.1382V35.2202C100.563 33.2961 99.6024 31.5154 98.0941 30.442ZM96.6567 93.9078L64.0785 66.5824L96.6567 37.4885V93.9078ZM4.46924 37.4885L37.0475 66.5824L4.46924 93.9078V37.4885ZM39.9917 69.2115L43.9659 72.7607C45.7717 74.4147 48.114 75.3249 50.563 75.3249C53.012 75.3249 55.3542 74.4147 57.1601 72.7607L61.1343 69.2115L93.1823 96.0914H7.94366L39.9917 69.2115ZM95.4269 33.3495L81.813 45.5077V24.0172L95.4269 33.3495ZM47.1763 4.98266C49.2019 3.54757 51.9241 3.54681 53.9634 4.99182L63.6329 11.7164H37.4915L47.1763 4.98266ZM77.9067 15.6226V48.9959L54.5493 69.8554C54.5425 69.8615 54.5356 69.8676 54.5287 69.8737C52.2682 71.9504 48.8578 71.9504 46.5972 69.8737C46.5904 69.8676 46.5843 69.8615 46.5774 69.8554L23.2192 48.9959C23.2192 41.3161 23.2192 22.7469 23.2192 15.6226H77.9067ZM19.313 45.5077L5.6991 33.3495L19.313 24.0172V45.5077Z" fill="#FFC000"/>
<path d="M66.188 88.2791H42.7505C41.6717 88.2791 40.7974 89.1541 40.7974 90.2322C40.7974 91.311 41.6717 92.1853 42.7505 92.1853H66.188C67.2668 92.1853 68.1411 91.311 68.1411 90.2322C68.1411 89.1541 67.2668 88.2791 66.188 88.2791Z" fill="#FFC000"/>
<path d="M50.563 58.5916C51.6418 58.5916 52.5161 57.7172 52.5161 56.6384C52.5161 55.5604 51.6418 54.6853 50.563 54.6853C43.0244 54.6853 36.8911 48.5528 36.8911 41.0134C36.8911 33.4748 43.0244 27.3416 50.563 27.3416C58.1016 27.3416 64.2349 33.4748 64.2349 41.0134V44.9197C64.2349 45.9969 63.359 46.8728 62.2817 46.8728C61.2045 46.8728 60.3286 45.9969 60.3286 44.9197V41.0134C60.3286 35.6294 55.9478 31.2478 50.563 31.2478C45.1782 31.2478 40.7974 35.6294 40.7974 41.0134C40.7974 46.3983 45.1782 50.7791 50.563 50.7791C53.1883 50.7791 55.5724 49.7361 57.3295 48.0454C58.3686 49.6865 60.1997 50.7791 62.2817 50.7791C65.5128 50.7791 68.1411 48.1507 68.1411 44.9197V41.0134C68.1411 31.321 60.2554 23.4353 50.563 23.4353C40.8706 23.4353 32.9849 31.321 32.9849 41.0134C32.9849 50.7066 40.8706 58.5916 50.563 58.5916ZM50.563 46.8728C47.3319 46.8728 44.7036 44.2445 44.7036 41.0134C44.7036 37.7831 47.3319 35.1541 50.563 35.1541C53.794 35.1541 56.4224 37.7831 56.4224 41.0134C56.4224 44.2445 53.794 46.8728 50.563 46.8728Z" fill="#FFC000"/>
</g>
<defs>
<clipPath id="clip0_133_7725">
<rect width="100" height="100" fill="white" transform="translate(0.562988)"/>
</clipPath>
</defs>
</svg>
