<svg width="22" height="20" viewBox="0 0 22 20" fill="none" xmlns="http://www.w3.org/2000/svg">
<path d="M12.5691 20C12.3039 20 12.0495 19.8946 11.862 19.7071C11.6744 19.5196 11.5691 19.2652 11.5691 19V18H1.56909C1.30388 18 1.04952 17.8946 0.861985 17.7071C0.674449 17.5196 0.569092 17.2652 0.569092 17C0.569092 16.7348 0.674449 16.4804 0.861985 16.2929C1.04952 16.1054 1.30388 16 1.56909 16H11.5691V15C11.5691 14.7348 11.6744 14.4804 11.862 14.2929C12.0495 14.1054 12.3039 14 12.5691 14C12.8343 14 13.0887 14.1054 13.2762 14.2929C13.4637 14.4804 13.5691 14.7348 13.5691 15V19C13.5691 19.2652 13.4637 19.5196 13.2762 19.7071C13.0887 19.8946 12.8343 20 12.5691 20ZM19.5691 18H16.5691C16.3039 18 16.0495 17.8946 15.862 17.7071C15.6744 17.5196 15.5691 17.2652 15.5691 17C15.5691 16.7348 15.6744 16.4804 15.862 16.2929C16.0495 16.1054 16.3039 16 16.5691 16H19.5691C19.8343 16 20.0887 16.1054 20.2762 16.2929C20.4637 16.4804 20.5691 16.7348 20.5691 17C20.5691 17.2652 20.4637 17.5196 20.2762 17.7071C20.0887 17.8946 19.8343 18 19.5691 18ZM9.56909 13C9.30387 13 9.04952 12.8946 8.86199 12.7071C8.67445 12.5196 8.56909 12.2652 8.56909 12V8C8.56909 7.73478 8.67445 7.48043 8.86199 7.29289C9.04952 7.10536 9.30387 7 9.56909 7C9.83431 7 10.0887 7.10536 10.2762 7.29289C10.4637 7.48043 10.5691 7.73478 10.5691 8V9H20.5691C20.8343 9 21.0887 9.10536 21.2762 9.29289C21.4637 9.48043 21.5691 9.73478 21.5691 10C21.5691 10.2652 21.4637 10.5196 21.2762 10.7071C21.0887 10.8946 20.8343 11 20.5691 11H10.5691V12C10.5691 12.2652 10.4637 12.5196 10.2762 12.7071C10.0887 12.8946 9.83431 13 9.56909 13ZM5.56909 11H1.56909C1.30388 11 1.04952 10.8946 0.861985 10.7071C0.674449 10.5196 0.569092 10.2652 0.569092 10C0.569092 9.73478 0.674449 9.48043 0.861985 9.29289C1.04952 9.10536 1.30388 9 1.56909 9H5.56909C5.83431 9 6.08866 9.10536 6.2762 9.29289C6.46373 9.48043 6.56909 9.73478 6.56909 10C6.56909 10.2652 6.46373 10.5196 6.2762 10.7071C6.08866 10.8946 5.83431 11 5.56909 11ZM12.5691 6C12.3039 6 12.0495 5.89464 11.862 5.70711C11.6744 5.51957 11.5691 5.26522 11.5691 5V4H1.56909C1.30388 4 1.04952 3.89464 0.861985 3.70711C0.674449 3.51957 0.569092 3.26522 0.569092 3C0.569092 2.73478 0.674449 2.48043 0.861985 2.29289C1.04952 2.10536 1.30388 2 1.56909 2H11.5691V1C11.5691 0.734784 11.6744 0.48043 11.862 0.292893C12.0495 0.105357 12.3039 0 12.5691 0C12.8343 0 13.0887 0.105357 13.2762 0.292893C13.4637 0.48043 13.5691 0.734784 13.5691 1V5C13.5691 5.26522 13.4637 5.51957 13.2762 5.70711C13.0887 5.89464 12.8343 6 12.5691 6ZM19.5691 4H16.5691C16.3039 4 16.0495 3.89464 15.862 3.70711C15.6744 3.51957 15.5691 3.26522 15.5691 3C15.5691 2.73478 15.6744 2.48043 15.862 2.29289C16.0495 2.10536 16.3039 2 16.5691 2H19.5691C19.8343 2 20.0887 2.10536 20.2762 2.29289C20.4637 2.48043 20.5691 2.73478 20.5691 3C20.5691 3.26522 20.4637 3.51957 20.2762 3.70711C20.0887 3.89464 19.8343 4 19.5691 4Z" fill="#B8B8D2"/>
</svg>
