<svg width="100" height="101" viewBox="0 0 100 101" fill="none" xmlns="http://www.w3.org/2000/svg">
<path d="M21.4025 82.5979V96.775C21.4025 97.6812 20.6629 98.4208 19.7567 98.4208H5.99626C5.09001 98.4208 4.35042 97.6812 4.35042 96.775V82.5979C4.35042 81.7125 5.09001 80.9833 5.99626 80.9833H19.7567C20.6629 80.9844 21.4025 81.7135 21.4025 82.5979ZM57.9963 57.2135H44.2358C43.3296 57.2135 42.59 57.9531 42.59 58.8583V96.775C42.59 97.6812 43.3296 98.4208 44.2358 98.4208H57.9963C58.9025 98.4208 59.6421 97.6812 59.6421 96.775V58.8583C59.6421 57.9531 58.9025 57.2135 57.9963 57.2135ZM38.8608 69.2031H25.1317C24.2046 69.2031 23.4858 69.9323 23.4858 70.8489V96.776C23.4858 97.7031 24.2046 98.4219 25.1317 98.4219H38.8608C39.7671 98.4219 40.5067 97.6823 40.5067 96.776V70.8489C40.5067 69.9427 39.7671 69.2031 38.8608 69.2031ZM77.1317 48.151H63.3713C62.465 48.151 61.7254 48.8906 61.7254 49.7969V96.776C61.7254 97.6823 62.465 98.4219 63.3713 98.4219H77.1317C78.0379 98.4219 78.7775 97.6823 78.7775 96.776V49.7969C78.7775 48.8906 78.0379 48.151 77.1317 48.151ZM97.4431 15.6948L92.8921 11.1437L97.4452 6.56562C97.7411 6.26771 97.8296 5.81979 97.6681 5.43125C97.5067 5.04271 97.1265 4.78958 96.7067 4.78958H78.1733V3.61979C78.1733 3.04687 77.7046 2.57812 77.1317 2.57812C76.5588 2.57812 76.09 3.04687 76.09 3.61979V5.82604C76.09 5.82812 76.089 5.82917 76.089 5.83125V16.4312C76.089 16.4333 76.09 16.4344 76.09 16.4365V46.0677H77.1317C77.4963 46.0677 77.8504 46.1198 78.1733 46.2135V17.4729H96.7067C97.1275 17.4729 97.5077 17.2198 97.6692 16.8302C97.8296 16.4406 97.7411 15.9927 97.4431 15.6948ZM50.5796 20.5573C57.3608 20.5573 62.8827 26.0677 62.8827 32.849C62.8827 39.6417 57.3608 45.1719 50.5796 45.1719C44.8723 45.1719 40.0588 41.2552 38.664 35.974H33.3306C34.8098 44.1521 41.9765 50.3802 50.5806 50.3802C60.2379 50.3802 68.0921 42.5156 68.0921 32.849C68.0921 23.2031 60.2379 15.349 50.5806 15.349C41.9869 15.349 34.8098 21.5573 33.3306 29.724H38.664C40.0588 24.4531 44.8713 20.5573 50.5796 20.5573ZM50.5796 37.8802C48.9858 37.8802 47.5692 37.1302 46.6525 35.974H40.84C42.1629 40.099 46.0265 43.0885 50.5796 43.0885C56.215 43.0885 60.7994 38.4948 60.7994 32.849C60.7994 27.225 56.2161 22.6406 50.5796 22.6406C46.0275 22.6406 42.1629 25.6198 40.84 29.724H46.6629C47.59 28.5781 48.9963 27.849 50.5796 27.849C53.34 27.849 55.5796 30.0885 55.5796 32.849C55.5796 35.6198 53.34 37.8802 50.5796 37.8802ZM13.6213 39.2031C13.8921 39.2031 14.1525 39.0979 14.3494 38.901L19.3608 33.8896H33.0796H38.3192H40.4025H45.6733H47.84C48.2619 34.999 49.3286 35.7927 50.5848 35.7927C52.1921 35.7927 53.5004 34.4719 53.5004 32.849C53.5004 31.2417 52.1921 29.9333 50.5848 29.9333C49.3338 29.9333 48.2692 30.7135 47.8431 31.8062H45.6733H40.4025H38.3192H33.0796H19.3608L14.3494 26.7958C14.1525 26.5979 13.8921 26.4937 13.6213 26.4937H4.40251C3.98688 26.4937 3.60042 26.7437 3.44417 27.1281C3.27751 27.525 3.3723 27.9729 3.66292 28.2646L7.20459 31.8052H3.30876C2.73584 31.8052 2.26709 32.274 2.26709 32.8469C2.26709 33.4198 2.73584 33.8885 3.30876 33.8885H7.20459L3.66292 37.4302C3.3723 37.7219 3.27751 38.1698 3.44417 38.5656C3.60042 38.951 3.98688 39.201 4.40251 39.201H13.6213V39.2031Z" fill="#FFC000"/>
</svg>
