<svg width="21" height="21" viewBox="0 0 21 21" fill="none" xmlns="http://www.w3.org/2000/svg">
<path d="M11.2069 0.429508L20.207 9.4296C20.837 10.0596 20.391 11.1366 19.5 11.1366H18.5V17.1367C18.5 17.9323 18.1839 18.6954 17.6213 19.258C17.0587 19.8206 16.2956 20.1367 15.5 20.1367H14.4999V13.1366C14.5 12.3714 14.2076 11.6351 13.6827 11.0784C13.1577 10.5216 12.4398 10.1865 11.6759 10.1416L11.4999 10.1366H9.49989C8.70423 10.1366 7.94116 10.4527 7.37855 11.0153C6.81593 11.5779 6.49986 12.341 6.49986 13.1366V20.1367H5.49985C4.70419 20.1367 3.94112 19.8206 3.37851 19.258C2.81589 18.6954 2.49982 17.9323 2.49982 17.1367V11.1366H1.49981C0.609796 11.1366 0.162791 10.0596 0.792798 9.4296L9.79289 0.429508C9.98042 0.242035 10.2347 0.136719 10.4999 0.136719C10.7651 0.136719 11.0194 0.242035 11.2069 0.429508ZM11.4999 12.1366C11.7651 12.1366 12.0195 12.242 12.207 12.4295C12.3946 12.6171 12.4999 12.8714 12.4999 13.1366V20.1367H8.49988V13.1366C8.49991 12.8917 8.58984 12.6553 8.7526 12.4723C8.91536 12.2892 9.13964 12.1723 9.38289 12.1436L9.49989 12.1366H11.4999Z" fill="#FFC000"/>
</svg>
