<svg width="21" height="21" viewBox="0 0 21 21" fill="none" xmlns="http://www.w3.org/2000/svg">
<path d="M11.2069 0.959782L20.207 9.95988C20.837 10.5899 20.391 11.6669 19.5 11.6669H18.5V17.667C18.5 18.4626 18.1839 19.2257 17.6213 19.7883C17.0587 20.3509 16.2956 20.667 15.5 20.667H14.4999V13.6669C14.5 12.9017 14.2076 12.1654 13.6827 11.6086C13.1577 11.0519 12.4398 10.7168 11.6759 10.6719L11.4999 10.6669H9.49989C8.70423 10.6669 7.94116 10.983 7.37855 11.5456C6.81593 12.1082 6.49986 12.8713 6.49986 13.6669V20.667H5.49985C4.70419 20.667 3.94112 20.3509 3.37851 19.7883C2.81589 19.2257 2.49982 18.4626 2.49982 17.667V11.6669H1.49981C0.609796 11.6669 0.162791 10.5899 0.792798 9.95988L9.79289 0.959782C9.98042 0.772309 10.2347 0.666992 10.4999 0.666992C10.7651 0.666992 11.0194 0.772309 11.2069 0.959782ZM11.4999 12.6669C11.7651 12.6669 12.0195 12.7723 12.207 12.9598C12.3946 13.1473 12.4999 13.4017 12.4999 13.6669V20.667H8.49988V13.6669C8.49991 13.422 8.58984 13.1856 8.7526 13.0025C8.91536 12.8195 9.13964 12.7026 9.38289 12.6739L9.49989 12.6669H11.4999Z" fill="#334451"/>
</svg>
