<svg width="25" height="25" viewBox="0 0 25 25" fill="none" xmlns="http://www.w3.org/2000/svg">
<path d="M12.4419 24.5491C10.7903 24.5491 9.23479 24.2335 7.77523 23.6024C6.31568 22.9704 5.04457 22.1126 3.9619 21.0291C2.87923 19.9455 2.02146 18.6744 1.38857 17.2157C0.75568 15.7571 0.440124 14.2015 0.441902 12.5491C0.441902 10.8922 0.757457 9.33529 1.38857 7.8784C2.02057 6.42063 2.87835 5.15085 3.9619 4.06907C5.04546 2.98729 6.31657 2.12952 7.77523 1.49574C9.23479 0.864628 10.7903 0.549072 12.4419 0.549072C14.0988 0.549072 15.6557 0.864628 17.1126 1.49574C18.5703 2.12774 19.8406 2.98552 20.9232 4.06907C22.0059 5.15263 22.8632 6.4224 23.4952 7.8784C24.1263 9.33618 24.4419 10.8931 24.4419 12.5491C24.4419 14.2006 24.1263 15.7562 23.4952 17.2157C22.8632 18.6753 22.0054 19.9464 20.9219 21.0291C19.8383 22.1117 18.5686 22.9695 17.1126 23.6024C15.6566 24.2353 14.0997 24.5508 12.4419 24.5491ZM12.4419 23.2264C13.2241 22.2211 13.8695 21.234 14.3779 20.2651C14.8855 19.2962 15.2983 18.2117 15.6166 17.0117H9.26723C9.62012 18.2793 10.0415 19.3975 10.5312 20.3664C11.0219 21.3353 11.6588 22.2886 12.4419 23.2264ZM10.7446 23.0264C10.1223 22.2931 9.55434 21.3864 9.04057 20.3064C8.52679 19.2273 8.14457 18.1286 7.8939 17.0104H2.78057C3.54501 18.6682 4.62812 20.0282 6.0299 21.0904C7.43257 22.1517 9.00412 22.7971 10.7446 23.0264ZM14.1392 23.0264C15.8797 22.7971 17.4512 22.1517 18.8539 21.0904C20.2557 20.0282 21.3388 18.6682 22.1032 17.0104H16.9912C16.6535 18.1455 16.2281 19.2526 15.7152 20.3317C15.2015 21.4117 14.6761 22.3108 14.1392 23.0264ZM2.23657 15.6784H7.61657C7.51523 15.1308 7.44412 14.5975 7.40323 14.0784C7.36057 13.5602 7.33923 13.0504 7.33923 12.5491C7.33923 12.0477 7.36012 11.538 7.4019 11.0197C7.44368 10.5015 7.51479 9.96818 7.61523 9.41973H2.2379C2.09301 9.88196 1.97968 10.3855 1.8979 10.9304C1.81612 11.4744 1.77523 12.014 1.77523 12.5491C1.77523 13.0842 1.81568 13.6242 1.89657 14.1691C1.97746 14.714 2.09079 15.2166 2.23657 15.6771M8.9499 15.6771H15.9339C16.0352 15.1304 16.1063 14.606 16.1472 14.1037C16.1899 13.6024 16.2112 13.0842 16.2112 12.5491C16.2112 12.014 16.1903 11.4957 16.1486 10.9944C16.1068 10.4931 16.0357 9.96862 15.9352 9.42107H8.94857C8.84812 9.96774 8.77701 10.4922 8.73523 10.9944C8.69345 11.4957 8.67257 12.014 8.67257 12.5491C8.67257 13.0842 8.69345 13.6024 8.73523 14.1037C8.77701 14.6051 8.84945 15.1295 8.9499 15.6771ZM17.2686 15.6771H22.6472C22.7921 15.2157 22.9054 14.7131 22.9872 14.1691C23.0681 13.6242 23.1086 13.0842 23.1086 12.5491C23.1086 12.014 23.0681 11.474 22.9872 10.9291C22.9063 10.3842 22.793 9.88151 22.6472 9.42107H17.2672C17.3686 9.96774 17.4397 10.5006 17.4806 11.0197C17.5232 11.5388 17.5446 12.0486 17.5446 12.5491C17.5446 13.0495 17.5237 13.5593 17.4819 14.0784C17.4401 14.5975 17.369 15.1308 17.2686 15.6784M16.9912 8.08774H22.1032C21.3219 6.39529 20.2517 5.03529 18.8926 4.00774C17.5334 2.98018 15.949 2.32641 14.1392 2.04641C14.7615 2.86507 15.321 3.80152 15.8179 4.85574C16.3148 5.90907 16.7059 6.9864 16.9912 8.08774ZM9.26723 8.08774H15.6166C15.2646 6.83618 14.8303 5.70463 14.3139 4.69307C13.7975 3.68152 13.1735 2.74107 12.4419 1.87174C11.7103 2.74018 11.0863 3.68063 10.5699 4.69307C10.0535 5.70551 9.61834 6.83707 9.26723 8.08774ZM2.7819 8.08774H7.8939C8.17923 6.98729 8.57034 5.90996 9.06723 4.85574C9.56412 3.80152 10.1237 2.86507 10.7459 2.04641C8.92012 2.32729 7.33168 2.98507 5.98057 4.01974C4.62946 5.05618 3.56279 6.41174 2.78057 8.0864" fill="#FFC000"/>
</svg>
