<svg width="100" height="101" viewBox="0 0 100 101" fill="none" xmlns="http://www.w3.org/2000/svg">
<path d="M17.979 80.9685C18.5278 81.4841 18.5552 82.3494 18.0396 82.8982C17.77 83.1834 17.4087 83.3279 17.0454 83.3279C16.7095 83.3279 16.3735 83.2048 16.1099 82.9587C11.5063 78.6306 7.8833 73.5193 5.34033 67.7654C2.70752 61.8084 1.37354 55.4568 1.37354 48.8884C1.37354 36.4001 6.23877 24.658 15.0708 15.8259C23.9028 6.9939 35.645 2.13062 48.1372 2.13062C57.5313 2.13062 66.486 4.8648 74.2007 10.0675L73.6929 6.4773C73.5874 5.73101 74.1067 5.04038 74.853 4.93491C75.6001 4.82925 76.2897 5.34878 76.3954 6.09507L77.403 13.2205C77.4536 13.5789 77.3599 13.9427 77.1423 14.232C76.9247 14.5212 76.6011 14.7123 76.2429 14.7628L69.1177 15.7705C69.0528 15.7796 68.9884 15.7841 68.9249 15.7841C68.2558 15.7841 67.6718 15.2917 67.5753 14.6103C67.4698 13.864 67.9892 13.1734 68.7355 13.0679L72.8958 12.4796C65.5835 7.48804 57.0722 4.86128 48.137 4.86128C23.8558 4.86128 4.10381 24.6113 4.10381 48.8886C4.104 61.1677 9.03174 72.5603 17.979 80.9685ZM90.4634 61.0486C91.2563 61.2849 92.0161 61.6736 92.7212 62.2068L92.9224 62.3591C96.5864 50.1716 95.1118 36.9177 88.8267 25.8435C88.4556 25.1873 87.6216 24.9568 86.9653 25.3298C86.311 25.7009 86.0806 26.5349 86.4536 27.1892C92.2798 37.4607 93.7153 49.7185 90.4634 61.0486ZM71.2524 86.365C60.5964 92.9449 47.4423 94.6658 35.4366 91.0625L39.5665 89.5263C40.2729 89.2636 40.6327 88.4781 40.3698 87.7716C40.1073 87.0652 39.3214 86.7052 38.6151 86.9683L31.8718 89.4763C31.1655 89.739 30.8058 90.5244 31.0683 91.2306L33.5763 97.9795C33.7806 98.5293 34.3017 98.8693 34.8558 98.8693C35.0138 98.8693 35.1743 98.8416 35.331 98.7836C36.0376 98.5209 36.3974 97.7355 36.1349 97.0291L34.9185 93.756C39.2153 95.0158 43.647 95.6388 48.0669 95.6388C56.8774 95.6388 65.6372 93.1681 73.1802 88.381L72.9849 88.2326C72.2759 87.697 71.6958 87.0681 71.2524 86.365ZM48.4282 46.8377C48.9595 46.5291 49.5493 46.324 50.1782 46.238C51.4341 46.0642 52.6821 46.3904 53.6899 47.1541L57.4146 49.9783C57.6899 47.6951 57.104 45.3943 55.7134 43.4529C53.9419 40.9763 51.1802 39.5564 48.1372 39.5564C42.9888 39.5564 38.7993 43.7439 38.7993 48.8884C38.7993 52.406 40.6587 55.4841 43.77 57.1228C46.313 58.4627 49.1587 58.5896 51.686 57.5349L47.9614 54.7107C45.8794 53.1287 45.4712 50.1482 47.0493 48.0662C47.4302 47.5623 47.8989 47.1482 48.4282 46.8377ZM57.4731 53.447L57.4165 53.4041L52.0415 49.3279C51.6899 49.0623 51.2681 48.9216 50.8306 48.9216C50.7368 48.9216 50.6431 48.9275 50.5493 48.9412C50.0161 49.0134 49.5474 49.2888 49.2251 49.7127C48.9497 50.0759 48.8169 50.5037 48.8169 50.9294C48.8169 51.5388 49.0903 52.1404 49.6118 52.5369L54.9907 56.615L55.0513 56.6619L65.6782 64.7205L65.7017 64.738L65.8013 64.8123L93.1021 85.5154L95.5317 82.3142L68.1821 61.5701L57.4731 53.447ZM68.5317 58.4099C71.6821 51.7068 71.3247 43.9861 67.4888 37.4607C63.4126 30.5271 56.1782 26.3865 48.1372 26.3865C35.7271 26.3865 25.6294 36.4802 25.6294 48.8884C25.6294 58.1091 30.9106 66.0388 39.4145 69.5877C47.5083 72.9646 56.3286 71.5623 62.8013 65.9627L54.1157 59.3767C52.2817 60.4216 50.2329 60.949 48.1743 60.949C46.2368 60.949 44.2896 60.4822 42.4985 59.5388C38.4731 57.4197 36.0708 53.4373 36.0708 48.8884C36.0708 42.238 41.4829 36.8279 48.1372 36.8279C52.0708 36.8279 55.6411 38.6638 57.9321 41.863C60.0044 44.7576 60.6919 48.4138 59.8423 51.8201L68.5317 58.4099ZM98.5513 70.0525L91.0728 64.3826C90.9282 64.2732 90.7798 64.1716 90.6294 64.0818C90.6196 64.0759 90.6099 64.072 90.6001 64.0642C89.5415 63.447 88.3599 63.3298 87.1509 63.7322L80.4712 65.9431L79.0747 66.406L93.3735 77.2517L98.6001 70.365C98.6724 70.2693 98.6489 70.1267 98.5513 70.0525ZM70.5825 74.6873L70.7114 71.9627L65.0181 67.6443C61.436 70.8845 57.1157 72.9959 52.4536 73.7752C51.0825 74.0037 49.6997 74.117 48.3169 74.117C44.938 74.117 41.5571 73.4392 38.3618 72.1072C28.8247 68.1267 22.8989 59.2302 22.8989 48.8884C22.8989 34.9763 34.2212 23.656 48.1372 23.656C57.1567 23.656 65.27 28.3005 69.8423 36.0779C74.2407 43.5642 74.5571 52.4548 70.7505 60.0935L76.438 64.406L79.0396 63.5447C79.1157 63.3826 79.1958 63.2087 79.2837 63.0173C81.3071 58.5681 82.3325 53.8142 82.3325 48.8884C82.3325 30.033 66.9927 14.6931 48.1372 14.6931C29.2778 14.6931 13.936 30.033 13.936 48.8884C13.936 67.7478 29.2778 83.0896 48.1372 83.0896C56.3853 83.0896 64.3579 80.1072 70.5825 74.6873ZM72.9478 82.4548C72.8794 83.9236 73.4614 85.1697 74.6333 86.0584L82.1196 91.7322C82.1802 91.7791 82.2388 91.783 82.2778 91.7771C82.3208 91.7712 82.3813 91.7517 82.4302 91.6892L87.647 84.8064L73.3501 73.9627L72.9478 82.4548Z" fill="#FFC000"/>
</svg>
