<svg width="21" height="21" viewBox="0 0 21 21" fill="none" xmlns="http://www.w3.org/2000/svg">
<path fill-rule="evenodd" clip-rule="evenodd" d="M4.67143 5.87163V1.85871L0.658513 5.87163H4.67143ZM6.48961 6.78072V1.32617H15.5805C16.0826 1.32617 16.4896 1.73319 16.4896 2.23526V19.508C16.4896 20.0101 16.0826 20.4171 15.5805 20.4171H1.03507C0.532995 20.4171 0.125977 20.0101 0.125977 19.508V7.68981H5.58052C6.08259 7.68981 6.48961 7.28279 6.48961 6.78072ZM8.30779 11.3262C8.30779 10.8241 8.71479 10.4171 9.21689 10.4171C9.71898 10.4171 10.126 10.8241 10.126 11.3262C10.126 11.8283 9.71898 12.2353 9.21689 12.2353C8.71479 12.2353 8.30779 11.8283 8.30779 11.3262ZM8.30779 7.68981V8.75408C8.2165 8.78635 8.12744 8.82335 8.0409 8.86472L7.28824 8.1121L6.00259 9.39772L6.75533 10.1504C6.71397 10.2369 6.67703 10.3259 6.6448 10.4171H5.58052V12.2353H6.6448C6.67702 12.3264 6.71395 12.4154 6.75529 12.5018L6.00246 13.2546L7.2881 14.5403L8.04083 13.7875C8.12739 13.829 8.21648 13.866 8.30779 13.8983V14.9625H10.126V13.8983C10.2172 13.866 10.3062 13.8291 10.3926 13.7877L11.1452 14.5403L12.4309 13.2546L11.6783 12.5021C11.7197 12.4155 11.7567 12.3265 11.789 12.2353H12.8532V10.4171H11.789C11.7567 10.3258 11.7197 10.2367 11.6783 10.1502L12.4307 9.39772L11.1451 8.1121L10.3926 8.86463C10.3062 8.82326 10.2172 8.78635 10.126 8.75408V7.68981H8.30779Z" fill="#334451"/>
<path fill-rule="evenodd" clip-rule="evenodd" d="M14.6714 3.14426C14.6714 1.63804 15.8924 0.416992 17.3987 0.416992C18.9049 0.416992 20.1259 1.63804 20.1259 3.14426V17.6897C20.1259 19.196 18.9049 20.417 17.3987 20.417H15.5805C15.0784 20.417 14.6714 20.01 14.6714 19.5079V3.14426ZM17.3987 2.23517C16.8966 2.23517 16.4896 2.64219 16.4896 3.14426V18.5988H17.3987C17.9007 18.5988 18.3077 18.1918 18.3077 17.6897V3.14426C18.3077 2.64219 17.9007 2.23517 17.3987 2.23517Z" fill="#334451"/>
</svg>
