<svg width="21" height="21" viewBox="0 0 21 21" fill="none" xmlns="http://www.w3.org/2000/svg">
<path fill-rule="evenodd" clip-rule="evenodd" d="M5.23442 6.12163V2.10871L1.2215 6.12163H5.23442ZM7.0526 7.03072V1.57617H16.1435C16.6456 1.57617 17.0526 1.98319 17.0526 2.48526V19.758C17.0526 20.2601 16.6456 20.6671 16.1435 20.6671H1.59806C1.09598 20.6671 0.688965 20.2601 0.688965 19.758V7.93981H6.14351C6.64558 7.93981 7.0526 7.53279 7.0526 7.03072ZM8.87078 11.5762C8.87078 11.0741 9.27778 10.6671 9.77987 10.6671C10.282 10.6671 10.689 11.0741 10.689 11.5762C10.689 12.0783 10.282 12.4853 9.77987 12.4853C9.27778 12.4853 8.87078 12.0783 8.87078 11.5762ZM8.87078 7.93981V9.00408C8.77949 9.03635 8.69043 9.07335 8.60389 9.11472L7.85123 8.3621L6.56558 9.64772L7.31832 10.4004C7.27696 10.4869 7.24002 10.5759 7.20779 10.6671H6.14351V12.4853H7.20779C7.24001 12.5764 7.27694 12.6654 7.31828 12.7518L6.56545 13.5046L7.85109 14.7903L8.60382 14.0375C8.69037 14.079 8.77946 14.116 8.87078 14.1483V15.2125H10.689V14.1483C10.7801 14.116 10.8691 14.0791 10.9556 14.0377L11.7082 14.7903L12.9939 13.5046L12.2413 12.7521C12.2827 12.6655 12.3197 12.5765 12.352 12.4853H13.4162V10.6671H12.352C12.3197 10.5758 12.2827 10.4867 12.2413 10.4002L12.9937 9.64772L11.7081 8.3621L10.9556 9.11463C10.8691 9.07326 10.7801 9.03635 10.689 9.00408V7.93981H8.87078Z" fill="#FFC000"/>
<path fill-rule="evenodd" clip-rule="evenodd" d="M15.2344 3.39426C15.2344 1.88804 16.4554 0.666992 17.9616 0.666992C19.4679 0.666992 20.6889 1.88804 20.6889 3.39426V17.9397C20.6889 19.446 19.4679 20.667 17.9616 20.667H16.1435C15.6414 20.667 15.2344 20.26 15.2344 19.7579V3.39426ZM17.9616 2.48517C17.4596 2.48517 17.0526 2.89219 17.0526 3.39426V18.8488H17.9616C18.4637 18.8488 18.8707 18.4418 18.8707 17.9397V3.39426C18.8707 2.89219 18.4637 2.48517 17.9616 2.48517Z" fill="#FFC000"/>
</svg>
