<svg width="101" height="101" viewBox="0 0 101 101" fill="none" xmlns="http://www.w3.org/2000/svg">
<g clip-path="url(#clip0_133_6871)">
<path d="M73.0423 0.5H29.7091C26.0425 0.5 23.0425 3.5 23.0425 7.1666V93.8332C23.0425 97.4998 26.0425 100.5 29.7091 100.5H73.0425C76.7091 100.5 79.7091 97.4998 79.7091 93.8332V7.1666C79.7091 3.5 76.7091 0.5 73.0423 0.5ZM76.3757 93.8334C76.3757 95.6668 74.8757 97.1668 73.0423 97.1668H29.7091C27.8757 97.1668 26.3757 95.6668 26.3757 93.8334V7.1666C26.3757 5.3332 27.8757 3.8332 29.7091 3.8332H73.0425C74.8759 3.8332 76.3759 5.3332 76.3759 7.1666V93.8334H76.3757Z" fill="#FFC000"/>
<path d="M23.042 10.5V87.1666H79.7086V10.5H23.042ZM76.3754 83.8334H26.3754V13.8334H76.3754V83.8334Z" fill="#FFC000"/>
<path d="M58.042 5.5H49.7086C48.7086 5.5 48.042 6.1666 48.042 7.1666C48.042 8.1666 48.7086 8.8332 49.7086 8.8332H58.042C59.042 8.8332 59.7086 8.1666 59.7086 7.1666C59.7088 6.1666 59.042 5.5 58.042 5.5Z" fill="#FFC000"/>
<path d="M44.7087 5.5H43.0421C42.0421 5.5 41.3755 6.1666 41.3755 7.1666C41.3755 8.1666 42.0421 8.8332 43.0421 8.8332H44.7087C45.7087 8.8332 46.3753 8.1666 46.3753 7.1666C46.3753 6.1666 45.7087 5.5 44.7087 5.5Z" fill="#FFC000"/>
<path d="M23.0421 15.5C22.0421 15.5 21.3755 16.1666 21.3755 17.1666V18.8332C21.3755 19.8332 22.0421 20.4998 23.0421 20.4998C24.0421 20.4998 24.7087 19.8332 24.7087 18.8332V17.1666C24.7089 16.1666 24.0421 15.5 23.0421 15.5Z" fill="#FFC000"/>
<path d="M23.0421 22.1665C22.0421 22.1665 21.3755 22.8331 21.3755 23.8331V25.4999C21.3755 26.4999 22.0421 27.1665 23.0421 27.1665C24.0421 27.1665 24.7087 26.4999 24.7087 25.4999V23.8333C24.7089 22.8333 24.0421 22.1665 23.0421 22.1665Z" fill="#FFC000"/>
<path d="M23.0421 28.8335C22.0421 28.8335 21.3755 29.5001 21.3755 30.5001V32.1667C21.3755 33.1667 22.0421 33.8333 23.0421 33.8333C24.0421 33.8333 24.7087 33.1667 24.7087 32.1667V30.5001C24.7089 29.5001 24.0421 28.8335 23.0421 28.8335Z" fill="#FFC000"/>
<path d="M51.3756 85.5C47.709 85.5 44.709 88.5 44.709 92.1666C44.709 95.8332 47.709 98.8332 51.3756 98.8332C55.0422 98.8332 58.0422 95.8332 58.0422 92.1666C58.0422 88.5 55.0422 85.5 51.3756 85.5ZM51.3756 95.5C49.5422 95.5 48.0422 94 48.0422 92.1666C48.0422 90.3332 49.5422 88.8332 51.3756 88.8332C53.209 88.8332 54.709 90.3332 54.709 92.1666C54.709 94 53.209 95.5 51.3756 95.5Z" fill="#FFC000"/>
<path d="M38.042 20.5C35.2086 20.5 33.042 22.6666 33.042 25.5C33.042 28.3334 35.2086 30.5 38.042 30.5C40.8754 30.5 43.042 28.3334 43.042 25.5C43.042 22.6666 40.8754 20.5 38.042 20.5ZM38.042 27.1666C37.042 27.1666 36.3754 26.5 36.3754 25.5C36.3754 24.5 37.042 23.8334 38.042 23.8334C39.042 23.8334 39.7086 24.5 39.7086 25.5C39.7086 26.5 39.042 27.1666 38.042 27.1666Z" fill="#FFC000"/>
<path d="M51.3755 20.5C48.5421 20.5 46.3755 22.6666 46.3755 25.5C46.3755 28.3334 48.5421 30.5 51.3755 30.5C54.2089 30.5 56.3755 28.3334 56.3755 25.5C56.3755 22.6666 54.2089 20.5 51.3755 20.5ZM51.3755 27.1666C50.3755 27.1666 49.7089 26.5 49.7089 25.5C49.7089 24.5 50.3755 23.8334 51.3755 23.8334C52.3755 23.8334 53.0421 24.5 53.0421 25.5C53.0421 26.5 52.3755 27.1666 51.3755 27.1666Z" fill="#FFC000"/>
<path d="M38.042 33.8335C35.2086 33.8335 33.042 36.0001 33.042 38.8335C33.042 41.6669 35.2086 43.8335 38.042 43.8335C40.8754 43.8335 43.042 41.6669 43.042 38.8335C43.042 36.0001 40.8754 33.8335 38.042 33.8335ZM38.042 40.5001C37.042 40.5001 36.3754 39.8335 36.3754 38.8335C36.3754 37.8335 37.042 37.1669 38.042 37.1669C39.042 37.1669 39.7086 37.8335 39.7086 38.8335C39.7086 39.8335 39.042 40.5001 38.042 40.5001Z" fill="#FFC000"/>
<path d="M51.3755 33.8335C48.5421 33.8335 46.3755 36.0001 46.3755 38.8335C46.3755 41.6669 48.5421 43.8335 51.3755 43.8335C54.2089 43.8335 56.3755 41.6669 56.3755 38.8335C56.3755 36.0001 54.2089 33.8335 51.3755 33.8335ZM51.3755 40.5001C50.3755 40.5001 49.7089 39.8335 49.7089 38.8335C49.7089 37.8335 50.3755 37.1669 51.3755 37.1669C52.3755 37.1669 53.0421 37.8335 53.0421 38.8335C53.0421 39.8335 52.3755 40.5001 51.3755 40.5001Z" fill="#FFC000"/>
<path d="M64.709 33.8335C61.8756 33.8335 59.709 36.0001 59.709 38.8335C59.709 41.6669 61.8756 43.8335 64.709 43.8335C67.5424 43.8335 69.709 41.6669 69.709 38.8335C69.709 36.0001 67.5422 33.8335 64.709 33.8335ZM64.709 40.5001C63.709 40.5001 63.0424 39.8335 63.0424 38.8335C63.0424 37.8335 63.709 37.1669 64.709 37.1669C65.709 37.1669 66.3756 37.8335 66.3756 38.8335C66.3756 39.8335 65.709 40.5001 64.709 40.5001Z" fill="#FFC000"/>
<path d="M64.709 20.5C61.8756 20.5 59.709 22.6666 59.709 25.5C59.709 28.3334 61.8756 30.5 64.709 30.5C67.5424 30.5 69.709 28.3334 69.709 25.5C69.709 22.6666 67.5422 20.5 64.709 20.5ZM64.709 27.1666C63.709 27.1666 63.0424 26.5 63.0424 25.5C63.0424 24.5 63.709 23.8334 64.709 23.8334C65.709 23.8334 66.3756 24.5 66.3756 25.5C66.3756 26.5 65.709 27.1666 64.709 27.1666Z" fill="#FFC000"/>
<path d="M38.042 47.1665C35.2086 47.1665 33.042 49.3331 33.042 52.1665C33.042 54.9999 35.2086 57.1665 38.042 57.1665C40.8754 57.1665 43.042 54.9999 43.042 52.1665C43.042 49.3333 40.8754 47.1665 38.042 47.1665ZM38.042 53.8333C37.042 53.8333 36.3754 53.1667 36.3754 52.1667C36.3754 51.1667 37.042 50.5001 38.042 50.5001C39.042 50.5001 39.7086 51.1667 39.7086 52.1667C39.7086 53.1667 39.042 53.8333 38.042 53.8333Z" fill="#FFC000"/>
<path d="M51.3755 47.1665C48.5421 47.1665 46.3755 49.3331 46.3755 52.1665C46.3755 54.9999 48.5421 57.1665 51.3755 57.1665C54.2089 57.1665 56.3755 54.9999 56.3755 52.1665C56.3755 49.3333 54.2089 47.1665 51.3755 47.1665ZM51.3755 53.8333C50.3755 53.8333 49.7089 53.1667 49.7089 52.1667C49.7089 51.1667 50.3755 50.4999 51.3755 50.4999C52.3755 50.4999 53.0421 51.1665 53.0421 52.1665C53.0421 53.1665 52.3755 53.8333 51.3755 53.8333Z" fill="#FFC000"/>
<path d="M51.3755 65.5C48.5421 65.5 46.3755 67.6666 46.3755 70.5C46.3755 73.3334 48.5421 75.5 51.3755 75.5C54.2089 75.5 56.3755 73.3334 56.3755 70.5C56.3755 67.6666 54.2089 65.5 51.3755 65.5ZM51.3755 72.1666C50.3755 72.1666 49.7089 71.5 49.7089 70.5C49.7089 69.5 50.3755 68.8334 51.3755 68.8334C52.3755 68.8334 53.0421 69.5 53.0421 70.5C53.0421 71.5 52.3755 72.1666 51.3755 72.1666Z" fill="#FFC000"/>
<path d="M64.709 47.1665C61.8756 47.1665 59.709 49.3331 59.709 52.1665C59.709 54.9999 61.8756 57.1665 64.709 57.1665C67.5424 57.1665 69.709 54.9999 69.709 52.1665C69.709 49.3333 67.5422 47.1665 64.709 47.1665ZM64.709 53.8333C63.709 53.8333 63.0424 53.1667 63.0424 52.1667C63.0424 51.1667 63.709 50.5001 64.709 50.5001C65.709 50.5001 66.3756 51.1667 66.3756 52.1667C66.3756 53.1667 65.709 53.8333 64.709 53.8333Z" fill="#FFC000"/>
<path d="M16.3753 7.1667C13.5419 7.1667 11.3753 5.0001 11.3753 2.1667C11.3753 9.75132e-05 8.04194 9.75132e-05 8.04194 2.1667C8.04194 5.0001 5.87534 7.1667 3.04194 7.1667C0.875342 7.1667 0.875342 10.5001 3.04194 10.5001C5.87534 10.5001 8.04194 12.6667 8.04194 15.5001C8.04194 17.6667 11.3753 17.6667 11.3753 15.5001C11.3753 12.6667 13.5419 10.5001 16.3753 10.5001C18.5419 10.5001 18.5419 7.1667 16.3753 7.1667ZM9.70874 10.5001C9.20874 9.8335 8.70874 9.3335 8.04214 8.8335C8.70874 8.3335 9.20874 7.8335 9.70874 7.16689C10.2087 7.8335 10.7087 8.3335 11.3753 8.8335C10.7087 9.3335 10.2087 9.8335 9.70874 10.5001Z" fill="#FFC000"/>
<path d="M91.3756 23.8335C90.3756 23.8335 89.709 24.5001 89.709 25.5001V32.1667C89.709 33.1667 90.3756 33.8333 91.3756 33.8333C92.3756 33.8333 93.0422 33.1667 93.0422 32.1667V25.5001C93.0422 24.5001 92.3756 23.8335 91.3756 23.8335Z" fill="#FFC000"/>
<path d="M94.7087 27.1665H88.0421C87.0421 27.1665 86.3755 27.8331 86.3755 28.8331C86.3755 29.8331 87.0421 30.4997 88.0421 30.4997H94.7087C95.7087 30.4997 96.3753 29.8331 96.3753 28.8331C96.3753 27.8333 95.7087 27.1665 94.7087 27.1665Z" fill="#FFC000"/>
<path d="M13.0421 72.1665C12.0421 72.1665 11.3755 72.8331 11.3755 73.8331C11.3755 74.8331 12.0421 75.4999 13.0421 75.4999C14.0421 75.4999 14.7087 74.8333 14.7087 73.8333C14.7087 72.8333 14.0421 72.1665 13.0421 72.1665Z" fill="#FFC000"/>
<path d="M4.70908 42.1665C3.70908 42.1665 3.04248 42.8331 3.04248 43.8331C3.04248 44.8331 3.70908 45.4997 4.70908 45.4997C5.70908 45.4997 6.37568 44.8331 6.37568 43.8331C6.37568 42.8331 5.70908 42.1665 4.70908 42.1665Z" fill="#FFC000"/>
<path d="M86.3756 58.8335C85.3756 58.8335 84.709 59.5001 84.709 60.5001C84.709 61.5001 85.3756 62.1667 86.3756 62.1667C87.3756 62.1667 88.0422 61.5001 88.0422 60.5001C88.0422 59.5001 87.3756 58.8335 86.3756 58.8335Z" fill="#FFC000"/>
<path d="M98.0421 93.8335C97.0421 93.8335 96.3755 94.5001 96.3755 95.5001C96.3755 96.5001 97.0421 97.1667 98.0421 97.1667C99.0421 97.1667 99.7087 96.5001 99.7087 95.5001C99.7087 94.5001 99.0421 93.8335 98.0421 93.8335Z" fill="#FFC000"/>
</g>
<defs>
<clipPath id="clip0_133_6871">
<rect width="100" height="100" fill="white" transform="translate(0.562988 0.5)"/>
</clipPath>
</defs>
</svg>
