<svg width="100" height="101" viewBox="0 0 100 101" fill="none" xmlns="http://www.w3.org/2000/svg">
<path d="M50.4961 25.5977C36.4955 25.5977 25.1055 36.9879 25.1055 50.9883C25.1055 64.9889 36.4955 76.3789 50.4961 76.3789C64.4967 76.3789 75.8867 64.9889 75.8867 50.9883C75.8867 36.9879 64.4967 25.5977 50.4961 25.5977ZM50.4961 71.4961C39.1879 71.4961 29.9883 62.2963 29.9883 50.9883C29.9883 39.6803 39.1879 30.4805 50.4961 30.4805C61.8041 30.4805 71.0039 39.6803 71.0039 50.9883C71.0039 62.2963 61.8041 71.4961 50.4961 71.4961Z" fill="#FFC000"/>
<path d="M52.2743 47.6479L50.2614 41.4531L48.2485 47.6479C48.1179 48.0502 47.7429 48.3227 47.3198 48.3227H40.8062L46.0757 52.1514C46.4181 52.4 46.5612 52.8408 46.4304 53.2432L44.4177 59.4381L49.6872 55.6094C49.8583 55.485 50.0597 55.4229 50.261 55.4229C50.4624 55.4229 50.664 55.485 50.8351 55.6094L56.1046 59.4381L54.0919 53.2432C53.961 52.841 54.1042 52.4002 54.4466 52.1514L59.7161 48.3227H53.2024C52.78 48.3225 52.405 48.0502 52.2743 47.6479Z" fill="#FFC000"/>
<path d="M14.3633 81.2617C11.6709 81.2617 9.48047 83.4521 9.48047 86.1445C9.48047 88.8369 11.6709 91.0273 14.3633 91.0273C17.0557 91.0273 19.2461 88.8369 19.2461 86.1445C19.2461 83.4521 17.0557 81.2617 14.3633 81.2617Z" fill="#FFC000"/>
<path d="M50.4961 32.4336C40.265 32.4336 31.9414 40.7572 31.9414 50.9883C31.9414 61.2193 40.265 69.543 50.4961 69.543C60.7271 69.543 69.0508 61.2193 69.0508 50.9883C69.0508 40.7572 60.7271 32.4336 50.4961 32.4336ZM63.2961 48.1363L56.1691 53.3147L58.8914 61.693C59.0223 62.0953 58.8789 62.5359 58.5367 62.7848C58.3656 62.9092 58.1643 62.9713 57.9627 62.9713C57.7613 62.9713 57.5598 62.9092 57.3889 62.7848L50.2617 57.6066L43.1346 62.7848C42.7924 63.0334 42.3289 63.0334 41.9867 62.7848C41.6443 62.5361 41.5012 62.0953 41.632 61.693L44.3543 53.3147L37.2273 48.1363C36.885 47.8877 36.7418 47.4469 36.8727 47.0445C37.0033 46.6422 37.3783 46.3697 37.8014 46.3697H46.6109L49.3334 37.9914C49.4641 37.5891 49.8391 37.3166 50.2621 37.3166C50.6852 37.3166 51.0602 37.5891 51.1908 37.9914L53.9131 46.3697H62.7227C63.1457 46.3697 63.5207 46.6422 63.6514 47.0445C63.7816 47.4469 63.6385 47.8875 63.2961 48.1363Z" fill="#FFC000"/>
<path d="M86.6289 19.7383C88.7828 19.7383 90.5352 17.9859 90.5352 15.832C90.5352 13.6781 88.7828 11.9258 86.6289 11.9258C84.475 11.9258 82.7227 13.6781 82.7227 15.832C82.7227 17.9859 84.475 19.7383 86.6289 19.7383Z" fill="#FFC000"/>
<path d="M88.6538 45.5912L87.4245 43.4617C86.6495 42.1199 86.2401 40.5914 86.2401 39.0416V36.5828C86.2401 32.7389 84.1721 29.1571 80.8432 27.2354L78.7139 26.0061C77.3721 25.2313 76.253 24.1123 75.4782 22.7703L74.2487 20.6408C72.3268 17.3121 68.745 15.2442 64.9014 15.2442H62.4426C60.8928 15.2442 59.3643 14.8346 58.0223 14.0598L55.893 12.8305C52.5565 10.9041 48.4405 10.9016 45.0993 12.8305L42.97 14.0598C41.628 14.8346 40.0995 15.2442 38.5497 15.2442H36.0911C32.2471 15.2442 28.6653 17.3121 26.7436 20.6408L25.5141 22.7701C24.7391 24.1123 23.6202 25.2313 22.2784 26.0061L20.1489 27.2354C16.8202 29.1573 14.7522 32.7391 14.7522 36.5828V39.0416C14.7522 40.5914 14.3426 42.1199 13.5678 43.4617L12.3385 45.591C10.4165 48.9199 10.4165 53.0559 12.3385 56.3848L13.5678 58.5141C14.3428 59.8561 14.7522 61.3844 14.7522 62.9344V65.3932C14.7522 69.2369 16.8202 72.8186 20.1489 74.7405L22.2784 75.9699C23.6204 76.7449 24.7393 77.8637 25.5141 79.2057L26.7436 81.335C28.6655 84.6639 32.2473 86.7319 36.0911 86.7319H38.5497C40.0997 86.7319 41.628 87.1414 42.97 87.9162L45.0993 89.1455C48.4358 91.0717 52.5518 91.0744 55.893 89.1455L58.0223 87.9162C59.3643 87.1412 60.8926 86.7319 62.4426 86.7319H64.9014C68.7454 86.7319 72.3268 84.6639 74.2487 81.335L75.4782 79.2057C76.2532 77.8637 77.3719 76.7448 78.7139 75.9699L80.8432 74.7405C84.1721 72.8186 86.2401 69.2369 86.2401 65.3932V62.9344C86.2401 61.3846 86.6497 59.8561 87.4245 58.5141L88.6538 56.3848C90.5756 53.0561 90.5756 48.9201 88.6538 45.5912ZM77.8397 50.9881C77.8397 66.0655 65.5733 78.3319 50.4959 78.3319C35.4186 78.3319 23.1522 66.0655 23.1522 50.9881C23.1522 35.9108 35.4186 23.6444 50.4959 23.6444C65.5733 23.6444 77.8397 35.9108 77.8397 50.9881Z" fill="#FFC000"/>
<path d="M72.4688 10.9492C73.2778 10.9492 73.9336 10.2934 73.9336 9.48438C73.9336 8.67536 73.2778 8.01953 72.4688 8.01953C71.6597 8.01953 71.0039 8.67536 71.0039 9.48438C71.0039 10.2934 71.6597 10.9492 72.4688 10.9492Z" fill="#FFC000"/>
<path d="M91.0234 33.4102C91.8324 33.4102 92.4883 32.7543 92.4883 31.9453C92.4883 31.1363 91.8324 30.4805 91.0234 30.4805C90.2144 30.4805 89.5586 31.1363 89.5586 31.9453C89.5586 32.7543 90.2144 33.4102 91.0234 33.4102Z" fill="#FFC000"/>
<path d="M22.6641 11.9258C23.4731 11.9258 24.1289 11.2699 24.1289 10.4609C24.1289 9.65193 23.4731 8.99609 22.6641 8.99609C21.8551 8.99609 21.1992 9.65193 21.1992 10.4609C21.1992 11.2699 21.8551 11.9258 22.6641 11.9258Z" fill="#FFC000"/>
<path d="M8.99219 28.5273C9.8012 28.5273 10.457 27.8715 10.457 27.0625C10.457 26.2535 9.8012 25.5977 8.99219 25.5977C8.18318 25.5977 7.52734 26.2535 7.52734 27.0625C7.52734 27.8715 8.18318 28.5273 8.99219 28.5273Z" fill="#FFC000"/>
<path d="M91.0234 83.2148C91.8324 83.2148 92.4883 82.559 92.4883 81.75C92.4883 80.941 91.8324 80.2852 91.0234 80.2852C90.2144 80.2852 89.5586 80.941 89.5586 81.75C89.5586 82.559 90.2144 83.2148 91.0234 83.2148Z" fill="#FFC000"/>
<path d="M73.4453 92.9805C74.2543 92.9805 74.9102 92.3246 74.9102 91.5156C74.9102 90.7066 74.2543 90.0508 73.4453 90.0508C72.6363 90.0508 71.9805 90.7066 71.9805 91.5156C71.9805 92.3246 72.6363 92.9805 73.4453 92.9805Z" fill="#FFC000"/>
<path d="M29.5 91.0273C30.309 91.0273 30.9648 90.3715 30.9648 89.5625C30.9648 88.7535 30.309 88.0977 29.5 88.0977C28.691 88.0977 28.0352 88.7535 28.0352 89.5625C28.0352 90.3715 28.691 91.0273 29.5 91.0273Z" fill="#FFC000"/>
</svg>
