<svg width="25" height="25" viewBox="0 0 25 25" fill="none" xmlns="http://www.w3.org/2000/svg">
<g clip-path="url(#clip0_133_7899)">
<path d="M16.9419 3.375H19.4419C20.2703 3.375 20.9419 4.04657 20.9419 4.875V22.875C20.9419 23.7034 20.2703 24.375 19.4419 24.375H5.44189C4.61347 24.375 3.94189 23.7034 3.94189 22.875V4.875C3.94189 4.04657 4.61347 3.375 5.44189 3.375H7.94189" stroke="#FFC000" stroke-miterlimit="10" stroke-linecap="round" stroke-linejoin="round"/>
<path d="M14.1645 2.375C13.8181 1.77972 13.1803 1.375 12.4419 1.375C11.7035 1.375 11.0657 1.77972 10.7193 2.375H8.94189C8.38961 2.375 7.94189 2.82272 7.94189 3.375V3.875C7.94189 4.70343 8.61347 5.375 9.44189 5.375H15.4419C16.2703 5.375 16.9419 4.70343 16.9419 3.875V3.375C16.9419 2.82272 16.4942 2.375 15.9419 2.375H14.1645Z" stroke="#FFC000" stroke-miterlimit="10" stroke-linecap="round" stroke-linejoin="round"/>
<path d="M6.94189 9.375H9.94189V12.375H6.94189V9.375Z" stroke="#FFC000" stroke-miterlimit="10" stroke-linecap="round" stroke-linejoin="round"/>
<path d="M6.94189 17.375H9.94189V20.375H6.94189V17.375Z" stroke="#FFC000" stroke-miterlimit="10" stroke-linecap="round" stroke-linejoin="round"/>
<path d="M13.4419 9.875C13.718 9.875 13.9419 9.65114 13.9419 9.375C13.9419 9.09886 13.718 8.875 13.4419 8.875C13.1658 8.875 12.9419 9.09886 12.9419 9.375C12.9419 9.65114 13.1658 9.875 13.4419 9.875Z" fill="#FFC000"/>
<path d="M16.4419 9.875C16.718 9.875 16.9419 9.65114 16.9419 9.375C16.9419 9.09886 16.718 8.875 16.4419 8.875C16.1658 8.875 15.9419 9.09886 15.9419 9.375C15.9419 9.65114 16.1658 9.875 16.4419 9.875Z" fill="#FFC000"/>
<path d="M12.9419 11.375C12.9419 11.375 13.4419 12.375 14.9419 12.375C16.4419 12.375 16.9419 11.375 16.9419 11.375" stroke="#FFC000" stroke-miterlimit="10" stroke-linecap="round" stroke-linejoin="round"/>
<path d="M13.4419 17.875C13.718 17.875 13.9419 17.6511 13.9419 17.375C13.9419 17.0989 13.718 16.875 13.4419 16.875C13.1658 16.875 12.9419 17.0989 12.9419 17.375C12.9419 17.6511 13.1658 17.875 13.4419 17.875Z" fill="#FFC000"/>
<path d="M16.4419 17.875C16.718 17.875 16.9419 17.6511 16.9419 17.375C16.9419 17.0989 16.718 16.875 16.4419 16.875C16.1658 16.875 15.9419 17.0989 15.9419 17.375C15.9419 17.6511 16.1658 17.875 16.4419 17.875Z" fill="#FFC000"/>
<path d="M16.9419 20.375C16.9419 20.375 16.4419 19.375 14.9419 19.375C13.4419 19.375 12.9419 20.375 12.9419 20.375" stroke="#FFC000" stroke-miterlimit="10" stroke-linecap="round" stroke-linejoin="round"/>
</g>
<defs>
<clipPath id="clip0_133_7899">
<rect width="24" height="24" fill="white" transform="translate(0.441895 0.875)"/>
</clipPath>
</defs>
</svg>
