<svg width="21" height="21" viewBox="0 0 21 21" fill="none" xmlns="http://www.w3.org/2000/svg">
<path d="M7.68557 14.7518C7.68557 14.3851 7.98557 14.0851 8.35224 14.0851H15.3523C16.4523 14.0851 17.3523 13.1851 17.3523 12.0851V2.08498C17.3523 0.984972 16.4523 0.0849609 15.3523 0.0849609H2.68555C1.58555 0.0849609 0.685547 0.984972 0.685547 2.08498V12.0851C0.685547 13.1851 1.58555 14.0851 2.68555 14.0851H3.30556L4.59889 16.2385C5.0389 16.9652 5.83223 17.4185 6.68557 17.4185C7.53891 17.4185 8.33224 16.9652 8.77224 16.2385L9.26558 15.4185H8.35224C7.98557 15.4185 7.68557 15.1185 7.68557 14.7518ZM14.0189 2.75166H14.3523C14.7189 2.75166 15.0189 3.05166 15.0189 3.41833C15.0189 3.785 14.7189 4.08501 14.3523 4.08501H14.0189C13.6523 4.08501 13.3523 3.785 13.3523 3.41833C13.3523 3.05166 13.6523 2.75166 14.0189 2.75166ZM8.35224 2.75166H11.6856C12.0523 2.75166 12.3523 3.05166 12.3523 3.41833C12.3523 3.785 12.0523 4.08501 11.6856 4.08501H8.35224C7.98557 4.08501 7.68557 3.785 7.68557 3.41833C7.68557 3.05166 7.98557 2.75166 8.35224 2.75166ZM8.35224 5.19835H14.3523C14.7189 5.19835 15.0189 5.49836 15.0189 5.86503C15.0189 6.2317 14.7189 6.5317 14.3523 6.5317H8.35224C7.98557 6.5317 7.68557 6.2317 7.68557 5.86503C7.68557 5.49836 7.98557 5.19835 8.35224 5.19835ZM8.35224 7.64505H14.3523C14.7189 7.64505 15.0189 7.94505 15.0189 8.31172C15.0189 8.6784 14.7189 8.9784 14.3523 8.9784H8.35224C7.98557 8.9784 7.68557 8.6784 7.68557 8.31172C7.68557 7.94505 7.98557 7.64505 8.35224 7.64505ZM5.46556 6.75837H4.57889C3.71889 6.75837 3.02556 6.05836 3.02556 5.20502C3.02556 4.42501 3.60556 3.77834 4.35889 3.67167V3.425C4.35889 3.05833 4.6589 2.75833 5.02556 2.75833C5.39223 2.75833 5.69223 3.05833 5.69223 3.425V3.645H6.3589C6.72557 3.645 7.02557 3.94501 7.02557 4.31168C7.02557 4.67835 6.72557 4.97835 6.3589 4.97835H4.57889C4.45889 4.97835 4.35889 5.07835 4.35889 5.19835C4.35889 5.31836 4.45889 5.41836 4.57889 5.41836H5.46556C6.32557 5.41836 7.0189 6.11837 7.0189 6.97171C7.0189 7.75172 6.4389 8.39839 5.68557 8.50506V8.75173C5.68557 9.1184 5.38556 9.4184 5.0189 9.4184C4.65223 9.4184 4.35223 9.1184 4.35223 8.75173V8.53173H3.68556C3.31889 8.53173 3.01889 8.23172 3.01889 7.86505C3.01889 7.49838 3.31889 7.19838 3.68556 7.19838H5.46556C5.58557 7.19838 5.68557 7.09838 5.68557 6.97838C5.68557 6.85837 5.58557 6.75837 5.46556 6.75837ZM3.68556 11.4251C3.31889 11.4251 3.01889 11.1251 3.01889 10.7584C3.01889 10.3917 3.31889 10.0917 3.68556 10.0917H14.3523C14.7189 10.0917 15.0189 10.3917 15.0189 10.7584C15.0189 11.1251 14.7189 11.4251 14.3523 11.4251H3.68556Z" fill="white"/>
<path d="M18.6858 7.41797V12.0847C18.6858 13.9247 17.1924 15.4181 15.3524 15.4181H10.8191L9.91908 16.9247C9.81242 17.1048 9.68575 17.2648 9.55908 17.4181H13.6924C14.0591 17.4181 14.3591 17.7181 14.3591 18.0848C14.3591 18.4514 14.0591 18.7514 13.6924 18.7514H13.0258L13.4258 19.2848C13.7991 19.7848 14.3991 20.0848 15.0258 20.0848C15.6524 20.0848 16.2524 19.7848 16.6258 19.2848L18.0258 17.4181H18.6925C19.7925 17.4181 20.6925 16.5181 20.6925 15.4181V9.41799C20.6925 8.31798 19.7925 7.41797 18.6925 7.41797H18.6858Z" fill="white"/>
</svg>
