<svg width="14" height="15" viewBox="0 0 14 15" fill="none" xmlns="http://www.w3.org/2000/svg">
<path d="M13.278 14.5674C13.1901 14.567 13.1033 14.5491 13.0224 14.5148C12.9415 14.4804 12.8683 14.4303 12.807 14.3674L10.358 11.9184C9.09689 12.9383 7.49257 13.4354 5.87575 13.3074C4.25893 13.1793 2.75286 12.4358 1.66801 11.2302C0.583151 10.0246 0.00220345 8.44864 0.0449242 6.82732C0.0876449 5.20601 0.750777 3.66287 1.89762 2.51603C3.04446 1.36919 4.5876 0.706053 6.20891 0.663332C7.83023 0.620612 9.40615 1.20156 10.6118 2.28641C11.8174 3.37127 12.5609 4.87734 12.689 6.49416C12.817 8.11098 12.3199 9.7153 11.3 10.9764L13.749 13.4254C13.8422 13.5185 13.9056 13.6372 13.9313 13.7664C13.957 13.8956 13.9438 14.0296 13.8934 14.1513C13.843 14.273 13.7576 14.377 13.6481 14.4502C13.5385 14.5234 13.4097 14.5624 13.278 14.5624V14.5674ZM6.375 2.0004C5.38609 2.0004 4.41939 2.29365 3.59714 2.84306C2.7749 3.39246 2.13404 4.17336 1.7556 5.08699C1.37716 6.00062 1.27814 7.00595 1.47107 7.97586C1.664 8.94576 2.1402 9.83668 2.83946 10.5359C3.53872 11.2352 4.42964 11.7114 5.39954 11.9043C6.36945 12.0973 7.37478 11.9982 8.28841 11.6198C9.20204 11.2414 9.98294 10.6005 10.5323 9.77826C11.0818 8.95601 11.375 7.98931 11.375 7.0004C11.3734 5.67481 10.8461 4.40396 9.90878 3.46662C8.97144 2.52929 7.70059 2.00199 6.375 2.0004Z" fill="#B8B8D2"/>
</svg>
