<svg width="25" height="30" viewBox="0 0 25 30" fill="none" xmlns="http://www.w3.org/2000/svg">
<path d="M17.4501 20.125C15.3478 20.125 13.6377 21.8351 13.6377 23.9384C13.6377 26.0407 15.3478 27.7509 17.4501 27.7509C19.5534 27.7509 21.2636 26.0407 21.2636 23.9384C21.2636 21.8361 19.5534 20.125 17.4501 20.125ZM17.4501 26.7479C15.9015 26.7479 14.6407 25.4871 14.6407 23.9384C14.6407 22.3888 15.9015 21.128 17.4501 21.128C18.9998 21.128 20.2606 22.3888 20.2606 23.9384C20.2606 25.4871 18.9998 26.7479 17.4501 26.7479Z" fill="#FFC000"/>
<path d="M18.7195 22.7338L17.0124 24.44L16.1027 23.797C15.881 23.6376 15.5661 23.6897 15.4046 23.9174C15.2451 24.1441 15.2993 24.456 15.525 24.6155L16.7797 25.5022C16.867 25.5643 16.9683 25.5944 17.0686 25.5944C17.198 25.5944 17.3264 25.5443 17.4237 25.448L19.4297 23.443C19.6253 23.2474 19.6253 22.9294 19.4297 22.7338C19.2341 22.5383 18.9151 22.5383 18.7195 22.7338Z" fill="#FFC000"/>
<path d="M21.9344 0.461914H2.94942C1.56627 0.461914 0.441895 1.58629 0.441895 2.96944V27.0417C0.441895 28.4248 1.56627 29.5492 2.94942 29.5492H21.9344C23.3175 29.5492 24.4419 28.4248 24.4419 27.0417V2.96944C24.4419 1.58629 23.3175 0.461914 21.9344 0.461914ZM23.4389 27.0417C23.4389 27.8711 22.7639 28.5462 21.9344 28.5462H2.94942C2.11993 28.5462 1.4449 27.8711 1.4449 27.0417V2.96944C1.4449 2.13995 2.11993 1.46492 2.94942 1.46492H21.9344C22.7639 1.46492 23.4389 2.13995 23.4389 2.96944V27.0417Z" fill="#FFC000"/>
<path d="M6.73684 4.1521H3.99662C3.71979 4.1521 3.49512 4.37677 3.49512 4.6536V7.39382C3.49512 7.67066 3.71979 7.89533 3.99662 7.89533H6.73684C7.01367 7.89533 7.23835 7.67066 7.23835 7.39382V4.6536C7.23835 4.37577 7.01468 4.1521 6.73684 4.1521ZM6.23534 6.89232H4.49813V5.15511H6.23534V6.89232Z" fill="#FFC000"/>
<path d="M6.73684 10.1963H3.99662C3.71979 10.1963 3.49512 10.421 3.49512 10.6978V13.438C3.49512 13.7148 3.71979 13.9395 3.99662 13.9395H6.73684C7.01367 13.9395 7.23835 13.7148 7.23835 13.438V10.6978C7.23835 10.421 7.01468 10.1963 6.73684 10.1963ZM6.23534 12.9375H4.49813V11.2003H6.23534V12.9375Z" fill="#FFC000"/>
<path d="M6.73684 16.5645H3.99662C3.71979 16.5645 3.49512 16.7891 3.49512 17.066V19.8062C3.49512 20.083 3.71979 20.3077 3.99662 20.3077H6.73684C7.01367 20.3077 7.23835 20.083 7.23835 19.8062V17.066C7.23835 16.7881 7.01468 16.5645 6.73684 16.5645ZM6.23534 19.3047H4.49813V17.5675H6.23534V19.3047Z" fill="#FFC000"/>
<path d="M20.7621 5.52197H9.88041C9.60358 5.52197 9.37891 5.74665 9.37891 6.02348C9.37891 6.30031 9.60358 6.52498 9.88041 6.52498H20.7621C21.0389 6.52498 21.2636 6.30031 21.2636 6.02348C21.2636 5.74665 21.0389 5.52197 20.7621 5.52197Z" fill="#FFC000"/>
<path d="M20.7621 11.5662H9.88041C9.60358 11.5662 9.37891 11.7908 9.37891 12.0677C9.37891 12.3445 9.60358 12.5692 9.88041 12.5692H20.7621C21.0389 12.5692 21.2636 12.3445 21.2636 12.0677C21.2636 11.7908 21.0389 11.5662 20.7621 11.5662Z" fill="#FFC000"/>
<path d="M20.7621 17.9343H9.88041C9.60358 17.9343 9.37891 18.159 9.37891 18.4358C9.37891 18.7127 9.60358 18.9373 9.88041 18.9373H20.7621C21.0389 18.9373 21.2636 18.7127 21.2636 18.4358C21.2636 18.159 21.0389 17.9343 20.7621 17.9343Z" fill="#FFC000"/>
</svg>
