<svg width="100" height="101" viewBox="0 0 100 101" fill="none" xmlns="http://www.w3.org/2000/svg">
<g clip-path="url(#clip0_138_14987)">
<path d="M26.5234 86.2969H73.4766L71.0547 80.4844H28.9453L26.5234 86.2969Z" fill="#FFC000"/>
<path d="M24.0859 89.8438H18.4141L15.6328 95.6563H84.3828L81.5703 89.8438H24.0859Z" fill="#FFC000"/>
<path d="M98.4453 45.1406H97.6953L88.6172 20.8125H95.7422C96.4425 20.8125 97.1142 20.5343 97.6094 20.0391C98.1046 19.5439 98.3828 18.8722 98.3828 18.1719C98.3828 17.4715 98.1046 16.7999 97.6094 16.3047C97.1142 15.8095 96.4425 15.5313 95.7422 15.5312H4.25781C3.55748 15.5313 2.88582 15.8095 2.39061 16.3047C1.8954 16.7999 1.61719 17.4715 1.61719 18.1719C1.61719 18.8722 1.8954 19.5439 2.39061 20.0391C2.88582 20.5343 3.55748 20.8125 4.25781 20.8125H11.3828L2.25781 45.1406H1.57031C1.15591 45.1406 0.758484 45.3052 0.465458 45.5983C0.172433 45.8913 0.0078125 46.2887 0.0078125 46.7031C0.0078125 50.5032 1.51738 54.1476 4.20442 56.8346C6.89147 59.5217 10.5359 61.0313 14.3359 61.0313C18.136 61.0313 21.7804 59.5217 24.4675 56.8346C27.1545 54.1476 28.6641 50.5032 28.6641 46.7031C28.6641 46.2887 28.4994 45.8913 28.2064 45.5983C27.9134 45.3052 27.516 45.1406 27.1016 45.1406H26.3359L17.1953 20.8125H82.8203L73.6172 45.1406H72.8516C72.4372 45.1406 72.0397 45.3052 71.7467 45.5983C71.4537 45.8913 71.2891 46.2887 71.2891 46.7031C71.2256 48.6256 71.5494 50.5411 72.2413 52.3359C72.9332 54.1306 73.979 55.7679 75.3164 57.1503C76.6539 58.5327 78.2558 59.6319 80.0267 60.3826C81.7977 61.1334 83.7015 61.5202 85.625 61.5202C87.5485 61.5202 89.4523 61.1334 91.2233 60.3826C92.9942 59.6319 94.5961 58.5327 95.9336 57.1503C97.271 55.7679 98.3168 54.1306 99.0087 52.3359C99.7006 50.5411 100.024 48.6256 99.9609 46.7031C99.9611 46.2967 99.803 45.9062 99.52 45.6145C99.237 45.3228 98.8515 45.1528 98.4453 45.1406ZM23.0859 45.1406H5.52344L14.3203 21.7031L23.0859 45.1406ZM76.8203 45.1406L85.6328 21.7031L94.4297 45.1406H76.8203Z" fill="#FFC000"/>
<path d="M59.5234 24.4062H40.4766L42.1797 30.1562H57.8047L59.5234 24.4062Z" fill="#FFC000"/>
<path d="M46.8984 33.7031H53.1016V76.9375H46.8984V33.7031Z" fill="#FFC000"/>
<path d="M53.1328 8.4375C53.1328 7.6087 52.8036 6.81384 52.2175 6.22779C51.6315 5.64174 50.8366 5.3125 50.0078 5.3125C49.179 5.3125 48.3842 5.64174 47.7981 6.22779C47.2121 6.81384 46.8828 7.6087 46.8828 8.4375V12H53.1328V8.4375Z" fill="#FFC000"/>
</g>
<defs>
<clipPath id="clip0_138_14987">
<rect width="100" height="100" fill="white" transform="translate(0.0078125 0.5)"/>
</clipPath>
</defs>
</svg>
