<svg width="100" height="101" viewBox="0 0 100 101" fill="none" xmlns="http://www.w3.org/2000/svg">
<path d="M97.7351 68.3788C95.4623 60.3485 88.0381 34.7424 87.432 33.3788C86.2199 30.9545 84.5533 28.9848 82.432 27.4697C81.826 25.3485 79.5533 17.7727 79.2502 17.1667C77.432 13.5303 73.7957 11.2576 69.7048 11.2576C63.7957 11.2576 59.0987 15.9545 59.0987 21.8636V31.2576C57.2805 33.8333 56.2199 37.0151 56.2199 40.3485C54.5532 38.8333 52.2805 37.9242 49.8563 37.9242C47.432 37.9242 45.1593 38.8333 43.4926 40.3485C43.4926 37.0151 42.2805 33.8333 40.6139 31.2576V21.8636C40.6139 15.9545 35.9169 11.2576 30.0078 11.2576C25.9169 11.2576 22.2805 13.5303 20.4623 17.1667C20.1593 17.7727 18.6442 23.0757 17.2805 27.4697C15.3108 28.9848 13.4926 30.9545 12.2805 33.3788C11.6745 34.7424 4.25022 60.3485 1.97749 68.2273V68.3788C1.82598 70.197 1.52295 72.0151 1.52295 73.8333C1.52295 85.5 10.9169 94.8939 22.5836 94.8939C34.2502 94.8939 43.6442 85.5 43.6442 73.8333V66.106C45.3108 67.6212 47.5836 68.5303 49.8563 68.5303C52.2805 68.5303 54.5533 67.6212 56.0684 66.106V73.8333C56.0684 79.5909 58.4926 84.8939 62.2805 88.6818C66.0684 92.4697 71.3714 94.8939 77.129 94.8939C88.7957 94.8939 98.1896 85.5 98.1896 73.8333C98.4927 72.0151 98.1896 70.197 97.7351 68.3788ZM23.0381 84.5909C17.129 84.5909 12.2805 79.7424 12.2805 73.8333C12.2805 67.9242 17.129 63.0757 23.0381 63.0757C28.9472 63.0757 33.7957 67.9242 33.7957 73.8333C33.6442 79.7424 28.9472 84.5909 23.0381 84.5909ZM40.7654 63.0757C37.129 57.0151 30.3108 52.7727 22.7351 52.7727C17.129 52.7727 12.129 54.8939 8.34113 58.5303C11.5229 47.3182 15.0078 35.803 15.3108 34.8939C17.5836 30.197 22.129 27.4697 27.2805 27.4697C34.7048 27.4697 40.6139 33.5303 40.6139 40.803V63.0757H40.7654ZM50.0078 65.6515C46.5229 65.6515 43.7957 62.7727 43.7957 59.2879C43.7957 55.803 46.6745 53.0757 50.0078 53.0757C53.4926 53.0757 56.2199 55.9545 56.2199 59.2879C56.2199 62.7727 53.4926 65.6515 50.0078 65.6515ZM76.9775 84.5909C71.0684 84.5909 66.2199 79.7424 66.2199 73.8333C66.2199 67.9242 71.0684 63.0757 76.9775 63.0757C82.8866 63.0757 87.7351 67.9242 87.7351 73.8333C87.7351 79.7424 83.0381 84.5909 76.9775 84.5909ZM77.432 52.7727C69.7048 52.7727 63.0381 56.8636 59.4017 63.0757V40.6515C59.4017 33.2273 65.4623 27.3182 72.7351 27.3182C77.8866 27.3182 82.432 30.197 84.7048 34.7424C85.1593 35.6515 88.4926 47.3182 91.6745 58.5303C88.0381 54.8939 82.8866 52.7727 77.432 52.7727Z" fill="#FFC000"/>
<path d="M83.6441 73.8334C83.6441 77.4698 80.7653 80.3486 77.1289 80.3486C73.4926 80.3486 70.6138 77.3183 70.6138 73.8334C70.6138 73.6819 70.6138 73.5304 70.6138 73.3789C70.7653 72.9243 70.9168 72.6213 71.3713 72.3183C71.6744 72.1668 72.2804 72.0152 72.5835 72.1667C72.8865 72.3183 73.038 72.3183 73.341 72.3183C74.7047 72.3183 75.9168 71.1061 75.9168 69.7425C75.9168 69.591 75.9168 69.288 75.9168 69.1364C75.7653 68.6819 75.9168 68.2274 76.2198 67.7728C76.5229 67.4698 76.9774 67.1667 77.432 67.1667C80.9168 67.4698 83.6441 70.3486 83.6441 73.8334Z" fill="#FFC000"/>
<path d="M29.5533 73.8334C29.5533 77.4698 26.6745 80.3486 23.0381 80.3486C19.4017 80.3486 16.5229 77.3183 16.5229 73.8334C16.5229 73.6819 16.5229 73.5304 16.5229 73.3789C16.6745 72.9243 16.826 72.6213 17.2805 72.3183C17.5836 72.1668 18.0381 72.0152 18.4926 72.1667C18.7957 72.3183 19.0987 72.3183 19.2502 72.3183C20.6139 72.3183 21.826 71.1061 21.826 69.7425C21.826 69.4395 21.826 69.288 21.826 69.1364C21.6745 68.6819 21.826 68.2274 22.129 67.7728C22.432 67.4698 22.8866 67.1667 23.3411 67.1667C26.826 67.4698 29.5533 70.3486 29.5533 73.8334Z" fill="#FFC000"/>
<path d="M63.7955 41.4091C64.7046 41.4091 65.3107 40.803 65.4622 40.0455C65.7652 36.7121 68.4925 33.8333 71.8258 33.5303C72.5834 33.3788 73.1895 32.6212 73.1895 31.8636C73.038 31.1061 72.2804 30.5 71.5228 30.5C66.6743 31.1061 62.8864 35.0455 62.4319 39.7424C62.2804 40.6515 62.8864 41.2576 63.7955 41.4091Z" fill="#FFC000"/>
<path d="M25.1591 30.5C22.1288 31.1061 19.553 33.0758 18.1894 35.8031C18.1894 35.8031 18.1894 35.9546 18.0379 35.9546C17.8864 36.5607 17.4318 37.6213 16.9773 39.2879C16.6743 40.0455 17.1288 40.9546 18.0379 41.1061H18.4924C19.0985 41.1061 19.7046 40.6516 20.0076 40.0455C20.4621 38.5304 20.7652 37.4697 20.9167 36.8637C21.9773 35.0455 23.6439 33.6819 25.7652 33.2273C26.5227 33.0758 27.1288 32.3182 26.9773 31.4091C26.8258 30.9546 25.9167 30.3485 25.1591 30.5Z" fill="#FFC000"/>
</svg>
