<svg width="25" height="25" viewBox="0 0 25 25" fill="none" xmlns="http://www.w3.org/2000/svg">
<g clip-path="url(#clip0_133_7919)">
<path d="M13.9419 1.77441H2.94189C2.11489 1.77441 1.44189 2.44741 1.44189 3.27441V23.7744H12.4419V24.7744H0.441895V3.27441C0.441895 1.89541 1.56289 0.774414 2.94189 0.774414H13.9419C15.3209 0.774414 16.4419 1.89541 16.4419 3.27441V11.7974C16.0609 12.0854 15.7279 12.4294 15.4419 12.8104V3.27441C15.4419 2.44741 14.7689 1.77441 13.9419 1.77441ZM7.44189 13.7744H4.44189V14.7744H7.44189V13.7744ZM9.44189 14.7744H12.4419V13.7744H9.44189V14.7744ZM4.44189 18.7744H7.44189V17.7744H4.44189V18.7744ZM9.44189 18.7744H12.4419V17.7744H9.44189V18.7744ZM7.44189 5.77441H4.44189V6.77441H7.44189V5.77441ZM9.44189 6.77441H12.4419V5.77441H9.44189V6.77441ZM7.44189 9.77441H4.44189V10.7744H7.44189V9.77441ZM9.44189 10.7744H12.4419V9.77441H9.44189V10.7744ZM21.9419 19.7744H16.9419C15.5629 19.7744 14.4419 20.8954 14.4419 22.2744V24.7744H15.4419V22.2744C15.4419 21.4474 16.1149 20.7744 16.9419 20.7744H21.9419C22.7689 20.7744 23.4419 21.4474 23.4419 22.2744V24.7744H24.4419V22.2744C24.4419 20.8954 23.3209 19.7744 21.9419 19.7744ZM16.4419 15.7744C16.4419 14.1204 17.7879 12.7744 19.4419 12.7744C21.0959 12.7744 22.4419 14.1204 22.4419 15.7744C22.4419 17.4284 21.0959 18.7744 19.4419 18.7744C17.7879 18.7744 16.4419 17.4284 16.4419 15.7744ZM17.4419 15.7744C17.4419 16.8774 18.3389 17.7744 19.4419 17.7744C20.5449 17.7744 21.4419 16.8774 21.4419 15.7744C21.4419 14.6714 20.5449 13.7744 19.4419 13.7744C18.3389 13.7744 17.4419 14.6714 17.4419 15.7744Z" fill="#FFC000"/>
</g>
<defs>
<clipPath id="clip0_133_7919">
<rect width="24" height="24" fill="white" transform="translate(0.441895 0.774414)"/>
</clipPath>
</defs>
</svg>
